<?xml version="1.0" encoding="utf-8"?>
<!-- Generator: Adobe Illustrator 19.2.1, SVG Export Plug-In . SVG Version: 6.00 Build 0)  -->
<svg version="1.1" id="Layer_1" xmlns="http://www.w3.org/2000/svg" xmlns:xlink="http://www.w3.org/1999/xlink" x="0px" y="0px"
	 viewBox="0 0 873 794.5" style="enable-background:new 0 0 873 794.5;" xml:space="preserve">
<title>hermes FIDGET</title>
<g>
	<path d="M78,534.5c-0.9-10.7,1.5-22.8,5.4-34.3c7.9-23.6,21.5-43.4,41.9-58.2c13.5-9.8,28.3-16.4,44.4-20.5
		c11.1-2.9,22-6.8,32.9-10.6c8.6-3,17.2-6.1,25.5-9.9c9.5-4.4,18.7-9.4,27.8-14.6c7-4,13.8-8.4,20.4-13.1
		c10.7-7.6,20.7-16.2,28.9-26.6c5.3-6.7,10.4-13.6,14.6-21c4.7-8.4,7.9-17.6,10.6-26.9c3.6-12.3,5.1-24.8,6.3-37.4
		c1.4-15.1,1-30.2-1.1-45.2c-1.9-13.5-3.7-26.9-6.3-40.3c-1.6-8.5-4.8-16.6-6.8-25.1c-3.7-16-6.6-32.1-3.1-48.5
		c1.9-8.7,3.5-17.6,6.7-25.8c3.6-8.9,8.4-17.5,13.6-25.6c8-12.6,18.9-22.6,31.5-30.6c6.4-4.1,13.4-7.2,20.3-10.5
		c15-7.1,31-9,47.4-8.7c12.1,0,24.2,2.1,35.6,6.2c21.4,7.8,39.3,20.4,53.6,38.4c8.2,10.3,14.6,21.8,19,34.2
		c6.1,17.2,7.9,35.7,5.1,53.7c-1.6,10.1-4.5,20-6.7,30c-1.8,8-3.9,16-5.2,24.1c-3.7,22.7-5.9,45.5-4.9,68.6
		c0.6,17.4,3.8,34.6,9.3,51.1c7.2,21.1,20,38.6,36.6,53.3c10.7,9.7,22.6,18.2,35.3,25.2c9.3,5,18.6,10.2,28.2,14.6
		c8.2,3.8,16.9,6.7,25.5,9.9c5.9,2.2,11.8,4.3,17.7,6.2c5.2,1.6,10.5,2.9,15.8,4.5c6,1.8,12.2,3.2,17.9,5.6
		c6.4,2.6,12.6,5.8,18.6,9.4c10.4,6.4,19.7,14.5,27.5,24c5.9,7.2,10.9,14.9,15,23.2c4.4,8.7,7.6,17.8,9.6,27.3
		c3.6,16.7,3.8,33.6-0.2,50.3c-1.6,6.9-3.5,13.8-6.3,20.2c-3,6.9-7,13.3-10.8,19.7c-5.7,9.7-13.4,17.6-21.9,24.8
		c-7.5,6.2-15.6,11.5-24.3,15.8c-21.8,11-44.8,13.7-68.6,10.7c-11.3-1.4-22.1-5.2-32.6-10c-18.6-8.5-32.6-22.7-47.3-36.2
		c-12.3-11.3-25.7-21.6-38.9-31.9c-6.9-5.2-14.1-10-21.6-14.4c-6.4-3.8-13-7.1-19.8-10.1c-8.4-3.7-17-7.2-25.7-10.1
		c-6.9-2.4-14.1-4-21.3-5c-14-1.6-28.1-2.1-41.9,1.7c-7.4,2-14.9,3.5-22.1,6c-7.8,2.9-15.4,6.3-22.8,10.1c-5.5,2.7-10.9,5.7-16.1,9
		c-9.1,5.8-18.5,11.4-26.9,18.1c-12.7,10.2-24.8,21.2-37,32.1c-6.6,5.9-12.5,12.7-19.3,18.4c-7.9,6.6-16.9,11.8-26.6,15.2
		c-5.5,1.9-10.9,4.1-16.4,5.6c-11.1,3.1-22.5,3.4-34,3.1c-10.9-0.2-21.7-2.1-31.9-5.8c-7.9-2.9-15.3-6.9-22.8-10.8
		c-9.6-5-17.7-12.1-25.1-19.9c-8.3-8.7-15.2-18.6-20.4-29.4C81.5,571.3,77.5,553,78,534.5z M334.2,396.6
		c0.7,57.6,46.1,102.1,102.4,102c57.1-0.1,101.6-45.2,101.7-101.9c0.1-57.4-45.2-101.9-102.3-101.9S335.3,339.6,334.2,396.6
		L334.2,396.6z M761.1,535.3c-0.6-46.2-37.2-83.7-84.1-83.5c-46.4,0.2-83.2,37-83.3,83.9c-0.1,46.5,37.6,83.5,84.1,83.4
		C723.5,618.9,760.6,581.9,761.1,535.3L761.1,535.3z M195.5,619.9c44.7,0.3,83.7-36.4,83.7-83.5c0-46.7-38.1-83.5-83.6-83.6
		c-46.1-0.2-83.6,37-83.8,83.1c0,0.2,0,0.4,0,0.6C111.6,582.1,149.5,620.1,195.5,619.9L195.5,619.9z M519.3,118.6
		c0.3-45.5-37.6-83.5-83.4-83.8c-44.6-0.2-83.9,36.8-83.7,83.8c0.2,46.7,37.5,82.8,83,83.4C481.4,202.5,519.2,164.8,519.3,118.6z"/>
	<path d="M521.3,396.9c-1,47.4-38,84.7-85,84.7c-46.7,0.2-84.7-37.4-84.9-84.1c0-0.5,0-1.1,0-1.6c0.6-47.9,37.8-84.4,85.5-83.9
		C484.3,312.4,520.2,348.8,521.3,396.9z"/>
	<path d="M677.6,458.3c42.5-0.6,77.4,34.6,77.2,77.3s-34.8,77.2-77.4,77c-43.2-0.2-77.4-35.3-77.2-77.5
		C600.5,492.7,635.1,457.6,677.6,458.3z M720.6,535.5c1.1-23.1-20.5-43.5-43.2-43.5s-43.5,20.4-43.3,43.7
		c0.2,22.9,20.1,42.7,43.1,43C700.3,579,721.5,558.3,720.6,535.5z"/>
	<path d="M195.3,459.2c41.2-0.6,77.4,33.8,77.4,76.9c0.1,42.7-34.4,77.4-77.1,77.6l0,0c-42.7,0-77.4-34.5-77.4-77
		C118.2,493.5,152.3,459.2,195.3,459.2z M152.4,536.3c-1,22.1,19.2,43.2,42.9,43.2c24.4,0,43.5-20.5,43.5-42.8
		c0.1-24-19.2-43.5-43.2-43.7c-0.1,0-0.2,0-0.3,0C172.1,493,152,512.2,152.4,536.3z"/>
	<path d="M435.5,41.2c42.9,0.2,77.5,34,77.5,77c0,43.6-34,77.3-77.2,77.5c-42.7-0.5-76.8-35.5-76.3-78.2
		C360,75.7,393.7,41.9,435.5,41.2z M478.6,118.6c1.1-23.3-19.6-43.3-43-43.3c-23.9,0.1-43.5,20.1-43.1,43.1
		c0.4,24.9,18.6,42.8,43.1,43.2C458.3,162.2,479.3,143.2,478.6,118.6z"/>
</g>
</svg>
