<?xml version="1.0" encoding="utf-8"?>
<!-- Generator: Adobe Illustrator 19.2.1, SVG Export Plug-In . SVG Version: 6.00 Build 0)  -->
<svg version="1.1" id="Layer_1" xmlns="http://www.w3.org/2000/svg" xmlns:xlink="http://www.w3.org/1999/xlink" x="0px" y="0px"
	 viewBox="0 0 873 794.5" style="enable-background:new 0 0 873 794.5;" xml:space="preserve">
<style type="text/css">
	.st0{fill:#FF9332;}
	.st1{fill:#FFA362;}
	.st2{fill:#FDE3DC;}
</style>
<title>hermes FIDGET</title>
<g>
	<path class="st0" d="M78,534.5c-0.9-10.7,1.5-22.8,5.4-34.3c7.9-23.6,21.5-43.4,41.9-58.2c13.5-9.8,28.3-16.4,44.4-20.5
		c11.1-2.9,22-6.8,32.9-10.6c8.6-3,17.2-6.1,25.5-9.9c9.5-4.4,18.7-9.4,27.8-14.6c7-4,13.8-8.4,20.4-13.1
		c10.7-7.6,20.7-16.2,28.9-26.6c5.3-6.7,10.4-13.6,14.6-21c4.7-8.4,7.9-17.6,10.6-26.9c3.6-12.3,5.1-24.8,6.3-37.4
		c1.4-15.1,1-30.2-1.1-45.2c-1.9-13.5-3.7-26.9-6.3-40.3c-1.6-8.5-4.8-16.6-6.8-25.1c-3.7-16-6.6-32.1-3.1-48.5
		c1.9-8.7,3.5-17.6,6.7-25.8c3.6-8.9,8.4-17.5,13.6-25.6c8-12.6,18.9-22.6,31.5-30.6c6.4-4.1,13.4-7.2,20.3-10.5
		c15-7.1,31-9,47.4-8.7c12.1,0,24.2,2.1,35.6,6.2c21.4,7.8,39.3,20.4,53.6,38.4c8.2,10.3,14.6,21.8,19,34.2
		c6.1,17.2,7.9,35.7,5.1,53.7c-1.6,10.1-4.5,20-6.7,30c-1.8,8-3.9,16-5.2,24.1c-3.7,22.7-5.9,45.5-4.9,68.6
		c0.6,17.4,3.8,34.6,9.3,51.1c7.2,21.1,20,38.6,36.6,53.3c10.7,9.7,22.6,18.2,35.3,25.2c9.3,5,18.6,10.2,28.2,14.6
		c8.2,3.8,16.9,6.7,25.5,9.9c5.9,2.2,11.8,4.3,17.7,6.2c5.2,1.6,10.5,2.9,15.8,4.5c6,1.8,12.2,3.2,17.9,5.6
		c6.4,2.6,12.6,5.8,18.6,9.4c10.4,6.4,19.7,14.5,27.5,24c5.9,7.2,10.9,14.9,15,23.2c4.4,8.7,7.6,17.8,9.6,27.3
		c3.6,16.7,3.8,33.6-0.2,50.3c-1.6,6.9-3.5,13.8-6.3,20.2c-3,6.9-7,13.3-10.8,19.7c-5.7,9.7-13.4,17.6-21.9,24.8
		c-7.5,6.2-15.6,11.5-24.3,15.8c-21.8,11-44.8,13.7-68.6,10.7c-11.3-1.4-22.1-5.2-32.6-10c-18.6-8.5-32.6-22.7-47.3-36.2
		c-12.3-11.3-25.7-21.6-38.9-31.9c-6.9-5.2-14.1-10-21.6-14.4c-6.4-3.8-13-7.1-19.8-10.1c-8.4-3.7-17-7.2-25.7-10.1
		c-6.9-2.4-14.1-4-21.3-5c-14-1.6-28.1-2.1-41.9,1.7c-7.4,2-14.9,3.5-22.1,6c-7.8,2.9-15.4,6.3-22.8,10.1c-5.5,2.7-10.9,5.7-16.1,9
		c-9.1,5.8-18.5,11.4-26.9,18.1c-12.7,10.2-24.8,21.2-37,32.1c-6.6,5.9-12.5,12.7-19.3,18.4c-7.9,6.6-16.9,11.8-26.6,15.2
		c-5.5,1.9-10.9,4.1-16.4,5.6c-11.1,3.1-22.5,3.4-34,3.1c-10.9-0.2-21.7-2.1-31.9-5.8c-7.9-2.9-15.3-6.9-22.8-10.8
		c-9.6-5-17.7-12.1-25.1-19.9c-8.3-8.7-15.2-18.6-20.4-29.4C81.5,571.3,77.5,553,78,534.5z M334.2,396.6
		c0.7,57.6,46.1,102.1,102.4,102c57.1-0.1,101.6-45.2,101.7-101.9c0.1-57.4-45.2-101.9-102.3-101.9S335.3,339.6,334.2,396.6
		L334.2,396.6z M761.1,535.3c-0.6-46.2-37.2-83.7-84.1-83.5c-46.4,0.2-83.2,37-83.3,83.9c-0.1,46.5,37.6,83.5,84.1,83.4
		C723.5,618.9,760.6,581.9,761.1,535.3L761.1,535.3z M195.5,619.9c44.7,0.3,83.7-36.4,83.7-83.5c0-46.7-38.1-83.5-83.6-83.6
		c-46.1-0.2-83.6,37-83.8,83.1c0,0.2,0,0.4,0,0.6C111.6,582.1,149.5,620.1,195.5,619.9L195.5,619.9z M519.3,118.6
		c0.3-45.5-37.6-83.5-83.4-83.8c-44.6-0.2-83.9,36.8-83.7,83.8c0.2,46.7,37.5,82.8,83,83.4C481.4,202.5,519.2,164.8,519.3,118.6z"/>
	<path class="st0" d="M521.3,396.9c-1,47.4-38,84.7-85,84.7c-46.7,0.2-84.7-37.4-84.9-84.1c0-0.5,0-1.1,0-1.6
		c0.6-47.9,37.8-84.4,85.5-83.9C484.3,312.4,520.2,348.8,521.3,396.9z"/>
	<path class="st1" d="M677.6,458.3c42.5-0.6,77.4,34.6,77.2,77.3s-34.8,77.2-77.4,77c-43.2-0.2-77.4-35.3-77.2-77.5
		C600.5,492.7,635.1,457.6,677.6,458.3z M720.6,535.5c1.1-23.1-20.5-43.5-43.2-43.5s-43.5,20.4-43.3,43.7
		c0.2,22.9,20.1,42.7,43.1,43C700.3,579,721.5,558.3,720.6,535.5z"/>
	<path class="st1" d="M195.3,459.2c41.2-0.6,77.4,33.8,77.4,76.9c0.1,42.7-34.4,77.4-77.1,77.6c0,0,0,0,0,0
		c-42.7,0-77.4-34.5-77.4-77C118.2,493.5,152.3,459.2,195.3,459.2z M152.4,536.3c-1,22.1,19.2,43.2,42.9,43.2
		c24.4,0,43.5-20.5,43.5-42.8c0.1-24-19.2-43.5-43.2-43.7c-0.1,0-0.2,0-0.3,0C172.1,493,152,512.2,152.4,536.3z"/>
	<path class="st1" d="M435.5,41.2c42.9,0.2,77.5,34,77.5,77c0,43.6-34,77.3-77.2,77.5c-42.7-0.5-76.8-35.5-76.3-78.2
		C360,75.7,393.7,41.9,435.5,41.2z M478.6,118.6c1.1-23.3-19.6-43.3-43-43.3c-23.9,0.1-43.5,20.1-43.1,43.1
		c0.4,24.9,18.6,42.8,43.1,43.2C458.3,162.2,479.3,143.2,478.6,118.6z"/>
</g>
<g>
	<path class="st2" d="M453.8,371.9c1,1.2,2.2,2.2,3.6,2.9c-0.6-0.1-1.1-0.3-1.5-0.7c-0.5-0.3-0.9-0.7-1.4-1.1
		c-0.4,0.9,0.6,1.5,0.2,2.4l4.3-0.7v0.1l-1.4,0.3c-0.9,0.2-1.8,0.3-2.6,0.5c-0.2,0-0.4,0.2-0.4,0.4c0,0,0,0.1,0,0.1
		c0,0.4-0.1,0.8-0.3,1.1c-0.3,0.6-0.4,1.3-0.3,2c0.2,0.9,0.5,1.9,0.7,2.8c0.1,0.5,0.2,1.1,0.3,1.6c0,0.4,0.1,0.9,0.3,1.3
		c0.2,0.4,0.5,0.7,0.8,1c0.4,0.3,0.6,0.6,0.7,1c-0.2,0-0.3,0-0.5,0h-19.8c-0.3,0.1-0.5-0.1-0.6-0.4c0,0,0-0.1,0-0.1h3.6l0.1-0.1
		c-0.1-0.2-0.3-0.3-0.4-0.5c-0.4-0.4-0.4-0.5,0.1-0.8c0.3-0.2,0.4-0.3,0.1-0.6c-0.1-0.1-0.2-0.3-0.2-0.4c-0.2-0.7-0.6-1.3-1.3-1.6
		c-0.4-0.2-0.7-0.5-1.1-0.8c-0.2-0.1-0.3-0.4-0.2-0.5c0,0,0-0.1,0.1-0.1c0.2-0.2,0.4-0.5,0.7-0.7c0.4-0.4,0.8-0.7,1.2-1.1
		c0.2-0.2,0.5-0.3,0.7-0.5c0.2-0.2,0.4-0.4,0.6-0.7l-0.1-0.1c-0.1,0-0.3,0.1-0.4,0.1c-0.4,0.3-0.7,0.6-1.1,0.8l-1.6,1.3
		c0,0-0.1,0-0.1,0.1c-1.1,1.3-2,2.6-2,4.4c0,0.7,0.2,1.3,0.6,1.8c0.1,0.2,0.2,0.4-0.1,0.4h-7.6c0.1-0.3,0.3-0.5,0.6-0.5
		c1.5,0,3,0,4.6,0c0.6,0,0.6,0,0.5-0.6c0-0.1,0-0.2,0-0.3c0.2-0.3,0.2-0.6-0.1-0.8c0,0,0,0,0,0c0-0.1,0-0.2,0-0.3
		c0.3-1.2,0.5-2.5,0.8-3.7c0.1-0.2,0.1-0.3,0.2-0.5h0.1c-0.1,0.5-0.1,1.1-0.2,1.6c-0.2,0.8-0.4,1.5-0.6,2.3c0,0.2,0,0.4,0,0.6
		c0,0.2,0,0.5,0,0.7c-0.1,0.6,0.2,0.8,0.8,0.9c0.1,0,0.2-0.1,0.3-0.3c0-0.3-0.1-0.5-0.3-0.7c-0.2-0.2-0.3-0.4-0.2-0.7
		c0.2-0.9,0.4-1.8,0.5-2.6c0.1-0.4,0.2-0.8,0.2-1.3c0-0.4,0.2-0.8,0.5-1c0.2-0.2,0.4-0.4,0.5-0.6l-0.1-0.1c-0.3,0.1-0.6,0.1-0.8,0.2
		c-0.6,0.1-1.2,0.3-1.8,0.5c-0.8,0.2-1.3,1-1.3,1.8c0,0.3-0.2,0.5-0.4,0.6c-0.4,0.2-0.8,0.2-1.1-0.1c-0.7-0.8-1.8-1.1-2.8-0.9
		c0.2,0.6,0.4,0.7,1,0.5l0.6-0.2c0.1,0,0.1,0,0.2,0.1l-1.1,0.5c0.1,0.7,0.2,1.3,0.2,2c-0.1,1.6-1.4,3-3,3.1
		c-1.6,0.1-3.1-0.9-3.6-2.5c-0.1-0.4-0.1-0.7-0.1-1.1c0-0.2-0.1-0.3-0.2-0.3c0,0,0,0-0.1,0c-0.4-0.1-0.8-0.2-1.2-0.2v-0.2
		c0.4-0.2,0.8-0.4,1.2-0.5c0.4-0.1,0.8-0.4,1.1-0.7c0.5-0.6,1.2-1,2-1.1v-0.1c-0.8,0-1.7,0.1-2.5,0.2c-0.2,0.1-0.5-0.1-0.6-0.3
		c-0.2-0.4-0.4-0.7-0.6-1c-0.1-0.1-0.3-0.2-0.5-0.2c-2.7,0.3-5.5,0-8.1-1c-0.9-0.4-1.9-0.4-2.9,0c-0.6,0.2-1,0.7-1,1.4
		c0,0.3,0.1,0.5,0.5,0.4c1.4-0.4,3,0,4,1.2c0.2,0.2,0.5,0.3,0.7,0.4c0.4,0.1,0.9,0.3,1.3,0.4c-0.3,0.1-0.6,0.2-0.9,0.2
		s-0.4,0.2-0.3,0.5c0.5,2-0.7,4.1-2.8,4.6s-4.1-0.7-4.6-2.8c-0.1-0.5-0.1-1-0.1-1.5c0-0.1,0-0.3,0.1-0.5l-1.4-0.3v-0.1l1.5-0.4
		c0.1,0,0.3-0.1,0.4-0.2c0.4-0.4,0.9-0.8,1.3-1.2c0.1-0.1,0.1-0.2,0-0.3c-0.2-0.8,0.2-1.6,0.9-1.9c0.2-0.1,0.3-0.2,0.5-0.3
		c0.6-0.2,1-0.7,1-1.4c0-0.6,0-1.1,0-1.6c0-0.4-0.2-0.7-0.6-0.8c-0.6-0.3-1.1-0.6-1.6-1c-0.3-0.3-0.4-0.7-0.5-1
		c-0.1-0.2,0-0.4,0.2-0.5c0.1,0,0.2,0,0.3,0c0.4,0.1,0.7,0.2,1.1,0.3l0.1-0.6c0.2,0.1,0.4,0.2,0.5,0.4c0.3,0.7,1,1.1,1.8,1
		c1,0.1,1.9,0.1,2.9,0.2c0.9,0.1,1.9,0.3,2.8,0.5c1,0.3,1.8,1,2.3,2c0.6,1,1.3,2,2,3c2,2.6,5.9,1.7,7.2-0.8c0.6-1.1,1.1-2.2,1.6-3.3
		c0.6-1.2,1.4-2.2,2.4-3c0.1-0.1,0.2-0.1,0.3-0.1c-0.3,0.4-0.6,0.7-0.9,1.1c-0.5,0.8-1,1.6-1.5,2.3c-0.1,0.2-0.1,0.4,0,0.6
		c0.2,0.6,0.5,1.1,0.8,1.6c0.5,0.7,1.3,1,2.1,0.7c0.2,0,0.3-0.2,0.3-0.3c-0.1-1,0.1-2,0.4-3c0.3-1.1,1.1-2,2.1-2.4
		c0.2-0.1,0.3-0.2,0.5-0.3c1.5-0.9,3.3-1.1,4.9-0.4c0,0.1-0.1,0.1-0.1,0.2c-1.6,1.7-2.8,3.8-3.4,6c0,0.2-0.2,0.4-0.5,0.5
		c-0.6,0.1-1.1,0.3-1.7,0.5v-1.5l-0.8,0.3l-0.1-0.1c0.2-0.1,0.4-0.2,0.5-0.3c0.2-0.1,0.3-0.3,0.3-0.5c-0.2-0.9-0.1-1.9,0.2-2.8
		c0.2-0.4,0.3-0.7,0.5-1.1c-0.3,0.2-0.5,0.4-0.8,0.6c-0.5,0.6-0.7,1.3-0.8,2.1c-0.1,0.6,0,1.2-0.1,1.7c-0.1,0.3-0.1,0.5-0.2,0.8
		c0.6,0.1,0.3,0.6,0.5,1.1c-0.4,0.1-0.8,0.2-1.2,0.2c-0.1-0.1-0.2-0.2-0.3-0.4c0-0.2-0.1-0.4-0.4-0.3c-1,0.2-2.1-0.2-2.5-1.2
		c-0.3-0.4-0.5-0.9-0.7-1.4c-0.1,0.1-0.1,0.2-0.2,0.3l-0.9,2.1c-0.8,1.7-1.9,2.9-4,3c0.4,0.1,0.7,0.3,1.1,0.4c0.1,0,0.3,0,0.4,0
		c1.9-0.6,3.9-1.1,5.8-1.4c4.5-0.6,8.7-2.2,12.9-3.8l0.2-0.1h0.1l1.8,2.4c-1.3,0.4-2.6,0.3-3.8-0.1c-0.7-0.4-1.5-0.5-2.2-0.4
		c-0.2,0-0.5,0.1-0.7,0.2c-0.1,0.1-0.2,0.2-0.2,0.3c0,0.4-0.2,0.9-0.5,1.1c-0.5,0.4-1,0.9-1.5,1.3c-0.6,0.3-0.8,1.1-0.4,1.7
		c0.1,0.1,0.1,0.2,0.2,0.3c0.3,0.4,0.7,0.8,1.1,1.2c0.2,0.2,0.4,0.6,0.3,0.9c0,0.7,0,1.4,0.1,2.1c0,0.1,0.1,0.1,0.2,0.2
		c0.1,0,0.2,0,0.3,0h12.8c0.4,0,0.7-0.3,0.7-0.6c0-0.1,0-0.1,0-0.2c0-0.1,0-0.1-0.1-0.1c-0.6-0.2-0.4-0.8-0.5-1.2
		c-0.1-0.6-0.3-1.1-0.7-1.6c-0.1-0.1-0.2-0.3-0.2-0.4c-0.3-1-0.7-1.9-1-2.9c-0.1-0.2-0.3-0.4-0.5-0.4c-0.6-0.1-1.1-0.3-1.6-0.5
		c-1.3-0.5-2.3-1.7-2.6-3.1c-0.1-0.2,0-0.5,0.2-0.6c0,0,0,0,0.1,0c1.2-0.6,2.5-1.2,3.6-1.9c0.6-0.4,1.1-0.9,1.9-0.5
		c0.2,0.1,0.4,0.1,0.7,0C453.8,372.4,454.1,372.3,453.8,371.9z M408.8,386.5c0.4,0.1,0.7,0.2,1.1,0.2c0.2,0.1,0.4-0.1,0.5-0.3
		c0-0.1,0-0.1,0-0.2c-0.1-0.6-0.2-1.1-0.3-1.6c0-0.1-0.1-0.2-0.3-0.2c-0.1,0-0.2,0.1-0.2,0.2c-0.2,0.6-0.4,1.1-0.6,1.7
		C408.9,386.3,408.9,386.4,408.8,386.5c0-0.1,0-0.3,0-0.4c0.2-0.5,0.4-1,0.5-1.5c0-0.1,0-0.3,0-0.4c-0.1,0-0.3,0.1-0.4,0.1
		c-0.5,0.4-1.1,0.8-1.6,1.2C407.8,386,408.3,386.3,408.8,386.5L408.8,386.5z M418.8,374.3L418.8,374.3c0-0.2-0.1-0.3-0.2-0.4
		c-0.6-0.6-1.5-1-2.3-1.1c-1.4-0.1-2.7-0.2-4.1-0.3c-0.8,0-1.5-0.2-2.2-0.6c-0.3-0.2-0.7-0.4-1.1-0.6c-0.2-0.1-0.4-0.1-0.6,0
		c-0.3,0.2-0.1,0.5,0,0.7c0.5,0.7,1.2,1.2,2,1.4c1.3,0.3,2.6,0.3,3.8,0.1c1.1-0.1,2.2-0.1,3.2,0.1
		C417.8,373.9,418.3,374.1,418.8,374.3L418.8,374.3z M455.2,386.5l0.4-0.2l-0.3-0.3c-0.1-0.1-0.2-0.2-0.3-0.4
		c-0.1-0.3-0.1-0.7-0.2-1.1c-0.2-0.5-0.5-1-0.7-1.5c-0.4-1.2-0.8-2.4-1.2-3.5c0-0.1-0.1-0.3-0.2-0.4c-0.1-0.1-0.2-0.1-0.3-0.1
		c-0.1,0.1-0.1,0.2-0.1,0.3c0,0.2,0.1,0.4,0.1,0.5c0.4,1.7,1.4,3.3,1.6,5c0,0.1,0,0.1,0.1,0.1c0.1,0.3,0.3,0.6,0.4,0.8
		C454.5,386.3,454.9,386.6,455.2,386.5L455.2,386.5z M425.2,386.5h-0.1c0-0.5,0-1.1-0.1-1.6c0-0.1,0-0.3-0.2-0.3
		c-0.1,0-0.3,0-0.3,0.2l0,0c-0.3,0.4-0.5,0.8-0.8,1.1c-0.1,0.2-0.2,0.4,0.1,0.5c0.9,0.4,1.9,0.4,2.7-0.1c0.2,0,0.3-0.2,0.2-0.4
		c0-0.1-0.1-0.1-0.1-0.2c-0.3-0.3-0.6-0.6-0.8-0.9c-0.1-0.1-0.3-0.2-0.4-0.2c-0.1,0.1-0.1,0.3-0.2,0.5
		C425.1,385.5,425.2,386.1,425.2,386.5L425.2,386.5z M406.8,384L406.8,384c0-0.1,0.1-0.2,0.2-0.2c0.6-0.1,1.1-0.2,1.6-0.3
		c0.1-0.1,0.2-0.1,0.3-0.2c-0.1-0.1-0.2-0.2-0.3-0.3c-0.6-0.2-1.3-0.4-1.9-0.6c-0.3,0.8-0.2,1.8,0.2,2.6c0.2,0.4,0.3,0.4,0.7,0.2
		c0.4-0.3,0.8-0.6,1.2-0.9c0.1-0.1,0.2-0.3,0.2-0.4c-0.2,0-0.3-0.1-0.5-0.1C408,383.8,407.4,383.9,406.8,384L406.8,384z
		 M428.8,380.9c0.7,0.4,1.2,1,2,0.6c0.1,0,0.3,0,0.4,0c0.2,0,0.3-0.1,0.4-0.3c0.2-0.3,0.3-0.7,0.5-1.1
		C430.9,380.2,429.8,380.5,428.8,380.9L428.8,380.9z M410.6,386.7l1.1-0.5c0.2,0,0.2-0.2,0.2-0.4c0-0.1-0.1-0.1-0.1-0.1
		c-0.4-0.5-0.8-0.9-1.2-1.4c-0.1-0.1-0.2-0.1-0.3-0.1c-0.1,0.1-0.1,0.2-0.1,0.3c0,0.2,0.1,0.4,0.1,0.7
		C410.4,385.7,410.5,386.1,410.6,386.7L410.6,386.7z M410.9,375.8c-0.1,0.3-0.2,0.6-0.4,0.9s-0.1,0.4-0.2,0.7l0.7,0.1
		c0,0,0.1,0,0.2,0c0.2,0,0.5,0.1,0.7,0.1c0.3,0.1,0.6,0.2,0.9,0.3l0-0.1L410.9,375.8z M427.9,383.7L427.9,383.7c0-0.2,0-0.3,0-0.5
		c0-0.3-0.2-0.4-0.5-0.3c-0.3,0.1-0.9,0.3-1.3,0.5c-0.1,0.1-0.2,0.2-0.2,0.3c0,0.1,0.1,0.2,0.2,0.3c0.5,0.2,1,0.3,1.5,0.4
		c0.1,0.1,0.3,0,0.4-0.1c0,0,0-0.1,0-0.2C427.9,384,427.9,383.9,427.9,383.7L427.9,383.7z M422.2,384.9c0.7-0.3,1.2-0.5,1.8-0.8
		c0.1-0.1,0.2-0.2,0.2-0.3c0-0.1-0.1-0.2-0.2-0.2c-0.5-0.1-1-0.2-1.5-0.3c-0.2,0-0.3,0-0.4,0.2c0,0,0,0.1,0,0.2
		C422.1,384,422.2,384.4,422.2,384.9L422.2,384.9z M448.7,377.7l0,0.2c0.6,0.3,1.2,0.6,1.7,0.8c0.6,0.3,1.2,0.3,1.8,0.2
		c0.1,0,0.2-0.1,0.3-0.2c0-0.3-0.3-0.6-0.7-0.5l0,0c-0.9,0.2-1.8,0.1-2.6-0.3C449.1,377.8,448.9,377.8,448.7,377.7L448.7,377.7z
		 M413.1,382.9l-0.6,0.1c-0.5,0.1-1,0.2-1.4,0.2c-0.1,0-0.2,0.1-0.2,0.2c0.1,0.1,0.1,0.2,0.2,0.2c0.5,0.2,1.1,0.4,1.6,0.6
		c0.1,0.1,0.3,0,0.4-0.1c0-0.1,0.1-0.1,0-0.2C413.2,383.6,413.1,383.3,413.1,382.9L413.1,382.9z M413,384.6
		c-0.1-0.1-0.3-0.2-0.4-0.2c-0.5-0.2-1.1-0.4-1.6-0.6c-0.1,0-0.2,0-0.3,0.1c0,0.1,0,0.2,0.1,0.3c0.4,0.4,0.8,0.9,1.2,1.3
		c0.1,0.1,0.2,0.1,0.3,0.1C412.5,385.4,412.7,385.1,413,384.6L413,384.6z M424.5,384.4c-0.2-0.1-0.3-0.1-0.5-0.1
		c-0.3,0.1-0.6,0.2-0.8,0.4c-0.9,0.4-0.9,0.6-0.2,1.2l0.1,0.1c0.1,0.1,0.3,0.2,0.4,0.1c0,0,0.1,0,0.1-0.1l0.8-1.2
		C424.3,384.6,424.4,384.6,424.5,384.4L424.5,384.4z M427,386c0.3-0.4,0.5-0.7,0.7-1.1c0-0.1,0-0.2-0.1-0.3c-0.5-0.2-1-0.3-1.6-0.4
		c-0.1,0-0.2,0-0.2,0.1c0,0.1,0,0.2,0,0.3C426.1,385,426.5,385.5,427,386L427,386z M411,383.2c0.7-0.1,1.2-0.2,1.8-0.3
		c0.2,0,0.3-0.2,0.3-0.3c0,0,0-0.1,0-0.1c0-0.2-0.2-0.3-0.4-0.3c0,0-0.1,0-0.1,0c-0.2,0-0.4,0-0.5,0.1c-0.5,0-0.9,0.1-1.2,0.5
		c-0.1,0.1-0.1,0.2-0.1,0.3C410.8,383.1,410.9,383.1,411,383.2L411,383.2z M424.2,383l-0.5-0.7c-0.1-0.3-0.5-0.4-0.8-0.3
		c-0.1,0-0.1,0.1-0.2,0.1c-0.2,0.2-0.3,0.5-0.4,0.7c0.2,0.1,0.4,0.2,0.6,0.2C423.4,383.1,423.8,383.1,424.2,383L424.2,383z
		 M426.4,381.4c-0.4,0.1-0.9,0.1-1.3,0.2c-0.1,0-0.1,0.1-0.1,0.2c0,0.3,0,0.6,0.1,1C425.8,382.7,426.3,382.1,426.4,381.4
		L426.4,381.4z M408.6,382.3l0.1-0.2c-0.2-0.2-0.4-0.4-0.6-0.6c-0.1-0.2-0.5-0.3-0.7-0.2c-0.2,0.2-0.4,0.4-0.5,0.6
		c0,0.1,0.1,0.2,0.2,0.3C407.6,382.2,408.1,382.3,408.6,382.3L408.6,382.3z M410.5,382.2c0.7,0.1,1.4-0.3,1.6-0.9
		C410.7,381,410.8,381,410.5,382.2L410.5,382.2z M408.1,381.3c0.3,0.3,0.6,0.7,1,1c0.2,0.1,0.4,0.1,0.5,0c0,0,0.1-0.1,0.1-0.1
		c0-0.8-0.2-1-1-0.9L408.1,381.3z M423.5,381.9c0.3,0.4,0.5,0.7,0.8,0.9c0.1,0.1,0.2,0.1,0.4,0c0.1-0.1,0.2-0.2,0.2-0.3
		c0-0.3,0-0.6-0.1-1L423.5,381.9z M409.3,380.2c0.1,0.1,0.1,0.1,0.2,0.2c-0.1,0.5,0.2,0.6,0.6,0.6c0.1,0,0.2,0,0.3,0
		c0.2,0.1,0.4-0.1,0.4-0.2c0,0,0-0.1,0-0.1c0-0.2-0.1-0.4-0.3-0.4c0,0-0.1,0-0.1,0C410.1,380.1,409.7,380.2,409.3,380.2z
		 M427.6,382.8l0-0.2c-0.1-0.1-0.2-0.2-0.4-0.2c-0.5,0.1-1,0.3-1.5,0.5c-0.1,0.1-0.2,0.2-0.2,0.4c0.1,0.1,0.3,0.1,0.4,0.1
		C426.5,383.2,427,383,427.6,382.8L427.6,382.8z M410.6,381.1h-1.1c0.1,0.3,0.1,0.6,0.2,0.8c0,0.2,0.2,0.3,0.3,0.3
		c0.1,0,0.2-0.1,0.2-0.2C410.4,381.7,410.5,381.4,410.6,381.1z M427.3,382.1c-0.2-0.2-0.3-0.4-0.5-0.5c-0.1-0.1-0.2-0.1-0.3,0
		c-0.2,0.3-0.4,0.6-0.6,0.8l0.1,0.1L427.3,382.1z M412.8,382l0.1-0.1c-0.1-0.2-0.2-0.3-0.4-0.4c-0.3,0.2-0.6,0.3-0.9,0.6l0.1,0.1
		L412.8,382z M423.3,381.5l0,0.2c0.4-0.1,0.8-0.2,1.3-0.3c0.1,0,0.1-0.1,0.1-0.2c0-0.1-0.1-0.2-0.2-0.2
		C424.1,381,423.7,381.2,423.3,381.5L423.3,381.5z M407.8,382.4v0.1c0.4,0.1,0.7,0.3,1.1,0.4c0.1,0,0.2,0,0.2-0.1
		c0-0.1,0-0.2-0.1-0.3c-0.1-0.1-0.2-0.1-0.3-0.2C408.4,382.4,408.1,382.4,407.8,382.4L407.8,382.4z M421.8,382.4l-1.1,0.4
		C421.5,383.3,421.8,383,421.8,382.4L421.8,382.4z M407.7,381h1.2C408.5,380.3,408.3,380.3,407.7,381L407.7,381z M410.9,380.8
		l0.1,0.1l1,0.1l0.1-0.2c-0.3-0.2-0.5-0.3-0.8-0.4C411.1,380.5,411,380.7,410.9,380.8L410.9,380.8z M414.1,381.6l-1-0.3
		C413.4,382,413.7,382.1,414.1,381.6L414.1,381.6z M405.4,381.9c0.7,0.4,0.9,0.3,1-0.3L405.4,381.9z M424.9,380.9
		c0,0.5,0.2,0.5,1,0.2L424.9,380.9z"/>
	<path class="st2" d="M452.3,395.8c-0.1,0.2-0.1,0.5-0.2,0.7c-1.4,3.4-2.8,6.7-4.2,10.1c-0.2,0.5-0.6,0.4-1,0.4
		c-0.3,0.1-0.6-0.1-0.6-0.4c0,0,0,0,0,0c-1.5-3.5-2.9-7.1-4.4-10.6c0-0.1-0.1-0.2-0.2-0.3c0,0.2,0,0.4,0,0.5c0,3.5,0,6.9,0,10.4
		c0,0.4,0.1,0.5,0.5,0.5s0.8,0,1.1,0c0.2,0,0.3,0,0.4,0.2c0,0,0,0.1,0,0.2c0,0.5,0,1,0,1.5c0,0.1-0.1,0.3-0.2,0.3
		c-0.1,0-0.1,0-0.2,0c-1.9,0-3.9,0-5.8,0c-0.2,0-0.3,0-0.4-0.2c0-0.1,0-0.1,0-0.2c0-0.5,0-1,0-1.4c0-0.2,0.1-0.3,0.2-0.4
		c0,0,0.1,0,0.2,0c0.5,0,0.9,0,1.4,0c0.2,0.1,0.4-0.1,0.4-0.3c0-0.1,0-0.1,0-0.2c0-3.6,0-7.2,0-10.8c0-0.2-0.1-0.4-0.2-0.4
		c-0.1,0-0.1,0-0.2,0c-0.5,0-1,0-1.4,0c-0.1,0-0.3,0-0.3-0.2c0,0,0-0.1,0-0.1c0-0.5,0-1,0-1.6c0-0.2,0.1-0.3,0.2-0.3c0,0,0,0,0.1,0
		c1.7,0,3.5,0,5.2,0c0.2,0,0.3,0.1,0.4,0.3c1.3,3.1,2.5,6.2,3.8,9.3c0,0.1,0.1,0.2,0.1,0.2l3.6-8.7c0.5-1.1,0.5-1.1,1.6-1.1
		c1.4,0,2.8,0,4.1,0c0.2-0.1,0.4,0.1,0.5,0.3c0,0.1,0,0.1,0,0.2c0,0.5,0,1,0,1.4c0,0.2,0,0.3-0.2,0.4c-0.1,0-0.1,0-0.2,0
		c-0.5,0-1,0-1.5,0c-0.1,0-0.3,0.1-0.3,0.2c0,0,0,0.1,0,0.1c0,0.1,0,0.2,0,0.3c0,3.5,0,7,0,10.5c0,0.6,0,0.6,0.6,0.6
		c0.4,0,0.8,0,1.2,0c0.2,0,0.3,0,0.4,0.2c0,0,0,0.1,0,0.2c0,0.5,0,1,0,1.5c0,0.1-0.1,0.3-0.2,0.3c-0.1,0-0.1,0-0.2,0
		c-1.9,0-3.8,0-5.8,0c-0.2,0-0.3,0-0.4-0.2c0-0.1,0-0.1,0-0.2c0-0.5,0-0.9,0-1.4c-0.1-0.2,0.1-0.4,0.2-0.4c0.1,0,0.1,0,0.2,0
		c0.4,0,0.7,0,1.1,0c0.2,0,0.3,0,0.5,0L452.3,395.8L452.3,395.8z"/>
	<path class="st2" d="M384.7,395.5c-0.5,0-1.1,0-1.6,0c-0.2,0.1-0.3,0-0.4-0.2c0-0.1,0-0.1,0-0.2c0-0.5,0-1,0-1.5
		c0-0.2,0.1-0.3,0.2-0.3c0,0,0.1,0,0.1,0h5.6c0.2,0,0.4,0.1,0.4,0.3c0,0.5,0,1.1,0,1.6c0,0.1-0.1,0.3-0.2,0.3c0,0-0.1,0-0.1,0
		c-0.4,0-0.9,0-1.3,0c-0.2,0-0.3,0.1-0.4,0.2c0,0,0,0.1,0,0.1c0,1.1,0,2.2,0,3.3c0,0.2,0.1,0.3,0.2,0.3c0,0,0.1,0,0.1,0
		c2.2,0,4.5,0,6.7,0c0.1,0,0.3-0.1,0.3-0.2c0-1.2,0-2.5,0-3.8c-0.6,0-1.1,0-1.6,0c-0.2,0.1-0.4,0-0.4-0.2c0-0.1,0-0.1,0-0.2
		c0-0.5,0-1,0-1.5c0-0.1,0.1-0.3,0.2-0.3c0,0,0.1,0,0.1,0c1.9,0,3.9,0,5.8,0c0.1,0,0.2,0.1,0.3,0.3c0,0.5,0,1.1,0,1.6
		c0,0.1-0.1,0.2-0.3,0.3c-0.5,0-0.9,0-1.4,0c-0.4,0-0.4,0.2-0.4,0.5c0,3.2,0,6.5,0,9.7c0,0.4,0,0.7,0,1.1c0,0.2,0.1,0.4,0.2,0.4
		c0.1,0,0.1,0,0.2,0c0.5,0,0.9,0,1.3,0c0.2,0,0.3,0,0.4,0.2c0,0,0,0.1,0,0.2c0,0.5,0,1,0,1.5c0,0.3-0.1,0.3-0.4,0.3
		c-1.9,0-3.8,0-5.8,0c-0.2,0-0.3,0-0.4-0.2c0-0.1,0-0.1,0-0.2c0-0.5,0-1,0-1.5c0-0.2,0.1-0.3,0.2-0.3c0,0,0.1,0,0.1,0h1.3
		c0.2,0,0.3-0.1,0.4-0.2c0,0,0-0.1,0-0.2c0-1.6,0-3.1,0-4.7c0-0.2-0.1-0.3-0.2-0.4c0,0-0.1,0-0.1,0h-6.7c-0.2,0-0.3,0.1-0.4,0.3
		c0,0,0,0.1,0,0.1c0,1.6,0,3.1,0,4.7c0,0.2,0.1,0.3,0.3,0.4c0,0,0.1,0,0.1,0c0.4,0,0.8,0,1.3,0c0.2,0,0.3,0,0.4,0.2c0,0,0,0.1,0,0.2
		c0,0.5,0,1,0,1.5c0,0.1-0.1,0.3-0.2,0.3c-0.1,0-0.1,0-0.2,0H383c-0.2,0-0.4-0.1-0.4-0.3c0-0.5,0-1,0-1.5c0-0.1,0.1-0.3,0.2-0.3
		c0,0,0.1,0,0.1,0h1.3c0.2,0,0.3-0.1,0.4-0.2c0,0,0-0.1,0-0.1c0-3.7,0-7.4,0-11.2C384.7,395.6,384.7,395.6,384.7,395.5z"/>
	<path class="st2" d="M430.3,401c0.7,0.2,1.3,0.8,1.6,1.5c0.2,0.4,0.3,0.9,0.3,1.3c0.1,1,0.1,2,0.1,2.9c0,0.2,0.1,0.3,0.2,0.4
		c0,0,0.1,0,0.1,0c0.4,0,0.9,0,1.3,0c0.2,0,0.3,0,0.4,0.2c0,0.1,0,0.1,0,0.2c0,0.5,0,1,0,1.4c0,0.2,0,0.3-0.2,0.4
		c-0.1,0-0.1,0-0.2,0c-1.2,0-2.4,0-3.5,0c-0.2,0-0.3-0.1-0.4-0.2c0,0,0-0.1,0-0.1c0-1.6-0.1-3.1-0.2-4.7c0-0.3-0.1-0.7-0.1-1
		c-0.3-0.9-1.2-1.4-2.1-1.3c-1.4,0-2.8,0-4.1,0c-0.2,0-0.3,0.1-0.4,0.2c0,0,0,0.1,0,0.1c0,1.5,0,3,0,4.6c0,0.2,0.1,0.3,0.2,0.4
		c0,0,0.1,0,0.1,0c0.4,0,0.9,0,1.3,0c0.2,0,0.4,0.1,0.4,0.2c0,0.1,0,0.1,0,0.2c0,0.5,0,1,0,1.4c0,0.2-0.1,0.3-0.2,0.3
		c0,0-0.1,0-0.1,0c-1.9,0-3.7,0-5.6,0c-0.2,0-0.3-0.1-0.4-0.2c0,0,0-0.1,0-0.2c0-0.5,0-1,0-1.4c0-0.2,0.1-0.3,0.3-0.4
		c0,0,0.1,0,0.1,0h1.3c0.2,0,0.3-0.1,0.4-0.3c0,0,0-0.1,0-0.1c0-3.6,0-7.3,0-10.9c0-0.2-0.1-0.3-0.3-0.4c0,0-0.1,0-0.1,0
		c-0.4,0-0.9,0-1.3,0c-0.2,0-0.3-0.1-0.3-0.2c0,0,0-0.1,0-0.1c0-0.5,0-1,0-1.5c0-0.2,0.1-0.3,0.2-0.4c0,0,0.1,0,0.1,0
		c3.2,0,6.4,0,9.6,0c1.9,0,3.5,1.4,3.8,3.2c0.2,0.9,0.1,1.9-0.3,2.8C432.1,400.2,431.2,400.9,430.3,401z M426.2,395.5L426.2,395.5
		c-0.8,0-1.6,0-2.5,0c-0.4,0-0.5,0.1-0.5,0.5c0,1.1,0,2.2,0,3.3c-0.1,0.2,0.1,0.5,0.3,0.5c0.1,0,0.2,0,0.2,0c1.4,0,2.8,0,4.2,0
		c0.4,0,0.9-0.1,1.3-0.2c1-0.3,1.6-1.4,1.4-2.5c-0.2-1-1.1-1.7-2.1-1.6L426.2,395.5L426.2,395.5z"/>
	<path class="st2" d="M413,395.5h-0.8c-1.8,0-3.5,0-5.3,0c-0.3,0-0.4,0.1-0.4,0.4c0,1,0,2.1,0,3.1c0,0.3,0.1,0.4,0.4,0.4
		c1.5,0,3.1,0,4.6,0c0.3,0,0.5,0.1,0.4,0.4c0,0.5,0,0.9,0,1.4c0,0.3-0.1,0.4-0.4,0.4c-1.5,0-3.1,0-4.6,0c-0.4,0-0.5,0.1-0.5,0.5
		c0,1.5,0,3,0,4.6c-0.1,0.2,0.1,0.4,0.3,0.5c0.1,0,0.1,0,0.2,0c1.9,0,3.7,0,5.6,0c0.2,0.1,0.4-0.1,0.5-0.3c0-0.1,0-0.1,0-0.2
		c0-0.7,0-1.4,0-2.2c-0.1-0.2,0.1-0.4,0.3-0.5c0.1,0,0.2,0,0.2,0c0.5,0,0.9,0,1.3,0c0.2-0.1,0.4,0.1,0.4,0.2c0,0.1,0,0.1,0,0.2
		c0,1.5,0,3,0,4.5c0,0.2,0,0.3-0.2,0.4c0,0-0.1,0-0.2,0h-12.6c-0.1,0-0.3,0-0.3-0.2c0,0,0-0.1,0-0.1c0-0.5,0-1,0-1.5
		c0-0.2,0.1-0.3,0.2-0.4c0,0,0.1,0,0.2,0c0.5,0,1,0,1.4,0c0.2,0,0.4-0.1,0.4-0.3c0,0,0-0.1,0-0.1c0-3.6,0-7.2,0-10.9
		c0-0.2-0.1-0.4-0.2-0.4c-0.1,0-0.1,0-0.2,0c-0.5,0-1,0-1.4,0c-0.1,0-0.3,0-0.3-0.2c0,0,0-0.1,0-0.1c0-0.5,0-1,0-1.5
		c-0.1-0.2,0.1-0.4,0.2-0.4c0.1,0,0.1,0,0.2,0c1.3,0,2.6,0,3.8,0c2.8,0,5.6,0,8.5,0c0.4,0,0.5,0.1,0.5,0.5c0,1.1,0,2.3,0,3.4
		c0,0.3-0.1,0.5-0.4,0.5s-1,0-1.4,0c-0.2,0-0.3-0.1-0.3-0.2c0,0,0-0.1,0-0.1C413,396.8,413,396.2,413,395.5z"/>
	<path class="st2" d="M464.5,395.6v3.9h0.5c1.5,0,3,0,4.5,0c0.4,0,0.5,0.1,0.5,0.5c0,0.4,0,0.8,0,1.2c0,0.4-0.1,0.5-0.5,0.5
		c-1.5,0-2.9,0-4.4,0h-0.5v5.5h6.4c0-0.9,0-1.8,0-2.6c-0.1-0.2,0.1-0.4,0.3-0.5c0.1,0,0.2,0,0.2,0c0.5,0,1,0,1.4,0
		c0.2,0,0.3,0.1,0.3,0.2c0,0,0,0.1,0,0.1c0,1.5,0,3.1,0,4.6c0,0.3-0.2,0.3-0.4,0.3h-5.8c-2.2,0-4.3,0-6.5,0c-0.4,0-0.5-0.1-0.5-0.5
		c0-0.4,0-0.8,0-1.3c0-0.4,0.1-0.5,0.5-0.5c0.3,0,0.9,0,1.3,0c0.2,0,0.4-0.1,0.4-0.3c0-0.1,0-0.1,0-0.2c0-3.6,0-7.2,0-10.8
		c0-0.2-0.1-0.4-0.3-0.4c-0.1,0-0.1,0-0.2,0c-0.5,0-0.9,0-1.3,0s-0.4-0.1-0.4-0.4c0-0.5,0-0.9,0-1.4c0-0.4,0.1-0.5,0.5-0.4
		c0.8,0,1.5,0,2.3,0c3.3,0,6.6,0,9.9,0c0.4,0,0.6,0.1,0.5,0.5c0,1.1,0,2.3,0,3.4c0.1,0.2-0.1,0.4-0.2,0.4c-0.1,0-0.1,0-0.2,0
		c-0.5,0-0.9,0-1.3,0c-0.2,0-0.3-0.1-0.4-0.2c0,0,0-0.1,0-0.2c0-0.5,0-1,0-1.4c0-0.1,0-0.3-0.2-0.3c0,0-0.1,0-0.1,0h-6.1
		C464.6,395.5,464.5,395.6,464.5,395.6z"/>
	<path class="st2" d="M487.1,394.5c0-0.3,0-0.6,0-0.9c0-0.2,0.1-0.3,0.2-0.3c0,0,0.1,0,0.1,0h1.4c0.2,0,0.3,0.1,0.3,0.2
		c0,0,0,0.1,0,0.1c0,1.3,0,2.6,0,4c0,0.1-0.1,0.3-0.2,0.3c0,0-0.1,0-0.1,0c-0.5,0-1,0-1.6,0c-0.1,0-0.3-0.1-0.3-0.2
		c-0.5-1.5-1.8-2.5-3.3-2.6c-0.9-0.2-1.8,0-2.6,0.4c-1,0.4-1.4,1.6-1,2.6c0.2,0.4,0.6,0.8,1,1c0.4,0.2,0.8,0.4,1.2,0.5
		c1.2,0.3,2.5,0.4,3.7,0.7c1.2,0.2,2.4,0.8,3.2,1.8c1.6,2.1,1.2,5.1-1,6.7c-0.3,0.3-0.7,0.5-1.1,0.6c-2.2,1-4.7,0.8-6.8-0.5
		c-0.2-0.1-0.3-0.2-0.4-0.3c-0.1-0.1-0.2-0.2-0.5-0.4c0,0.4,0,0.7,0,1c0,0.1,0,0.3-0.2,0.3c0,0-0.1,0-0.1,0c-0.5,0-1,0-1.5,0
		c-0.1,0-0.2-0.1-0.3-0.3c0-1.7,0-3.3,0-5c0-0.1,0.1-0.2,0.3-0.3c0.5,0,1,0,1.5,0c0.1,0,0.3,0.2,0.3,0.3c0.1,0.4,0.2,0.8,0.4,1.2
		c0.5,1.4,1.8,2.3,3.3,2.4c0.9,0.1,1.9,0.1,2.8-0.2c1-0.2,1.7-1,2-1.9c0.3-1.3-0.4-2.6-1.6-3c-0.9-0.3-1.9-0.5-2.8-0.7
		c-1.1-0.2-2.1-0.5-3.2-0.8c-1.3-0.4-2.3-1.6-2.5-3c-0.3-1.5,0.4-3.1,1.6-4c2.1-1.4,4.8-1.5,7-0.2
		C486.6,394.1,486.9,394.3,487.1,394.5z"/>
	<path class="st2" d="M435.1,388.5h-29.3c-0.4,0-0.6,0-0.6-0.5c0-0.4,0.1-0.6,0.5-0.5h0.1c1.2-0.1,2.3,0,3.5,0.3
		c0.7,0.1,1.4,0.1,2-0.2c0.2-0.1,0.5-0.1,0.7-0.1c3.6,0,7.3,0,10.9,0c0.6,0,1.2,0.2,1.8,0.3c0.5,0,0.9,0,1.4-0.1
		c0.3-0.1,0.7-0.1,1-0.1h37.3c0.3,0,0.6-0.1,0.6,0.5c0.1,0.2-0.1,0.5-0.3,0.5c-0.1,0-0.2,0-0.2,0
		C454.7,388.5,444.9,388.5,435.1,388.5z"/>
	<path class="st2" d="M450.5,363l-0.4-0.3l0.1-0.1c0.6,0.2,1.2,0.1,1.7,0.6c0.2,0.2,0.4,0.2,0.7,0.3c0.1,0,0.2-0.1,0.3-0.2
		c0-0.1,0-0.2,0-0.3c-0.1-0.1-0.2-0.1-0.3-0.1c-0.4,0.4-0.6-0.1-0.8-0.2c0.5-0.5,1.4-0.5,1.9,0.1c0.3,0.5,0.9,0.8,1.5,1
		c0.3,0.1,0.6,0.2,0.9,0.4c0.1,0.1,0.2,0.3,0.2,0.5c-0.1,0.1-0.2,0.1-0.3,0.2c-0.1,0-0.3,0.1-0.4,0.1c-0.1-0.1-0.3-0.2-0.4-0.3
		c-0.1,0-0.2,0-0.3,0c0,0.1,0,0.2,0.1,0.3c0.3,0.1,0.5,0.2,0.8,0.4l-0.5,0.2l0.6,0.6c-0.8-0.2-1,0.6-1.6,0.8c0-0.1,0.1-0.2,0.1-0.3
		c0.2-0.2,0.4-0.4,0.6-0.5c0.2-0.1,0.3-0.4,0.1-0.6c0,0,0-0.1-0.1-0.1c-0.1-0.1-0.3-0.2-0.5-0.2c-0.6,0-0.7,0.2-0.6,0.8
		c0.1,0.2,0.1,0.4,0.1,0.6c-0.1-0.3-0.1-0.6-0.2-0.8c0-0.1-0.1-0.2-0.3-0.2c-0.3,0-0.6,0-1,0.1c-0.1,0-0.2,0.1-0.2,0.3
		c0,0.5,0.1,0.9,0.3,1.4c0.1,0.3,0.2,0.6-0.2,0.7c-0.1,0.1-0.2,0.1-0.3,0.2l0.1,0.2l0.7-0.2c0.6,1,0.8,2.3,0.5,3.5
		c-0.4-0.2-0.9-0.4-1.3-0.6c-0.6-0.4-1.2-1-1.9-1.4c-0.4-0.2-0.8-0.4-1.2-0.6c-0.3-0.3-0.4-0.7-0.4-1.1c0-0.2,0-0.4,0.1-0.6
		c0-0.2,0-0.3,0.1-0.5c0.1-0.2,0.2-0.4,0.2-0.7c0.2-0.6,0.2-1.3,0.8-1.8c0.1-0.1,0.1-0.1,0.2-0.2C450.1,363.7,450.3,363.4,450.5,363
		z"/>
	<path class="st2" d="M457.5,386.5h2.6c0.2,0,0.4,0,0.5-0.1c0.4-0.1,0.6-0.5,0.5-0.9c0,0,0-0.1,0-0.1c-0.2-0.7-0.5-1.4-0.8-2.1
		c-0.5-0.8-0.5-1.8,0-2.6c0.2-0.3,0.3-0.7,0.5-1c0.3-0.5,0.4-1.1,0.3-1.6c0-0.8,0.2-1.5,0.5-2.2c0.2-0.5,0.5-1,1-1.4
		c0.1-0.1,0.2-0.3,0.3-0.5c0.1,0.6-0.8,0.8-0.6,1.3c0.4-0.2,0.7-0.4,1.1-0.7c0.2-0.2,0.3-0.4,0.4-0.6c0-0.4-0.1-0.8-0.2-1.2
		c-0.1-0.2-0.2-0.3-0.3-0.4c-0.4-0.2-0.6,0.1-0.7,0.6c-0.1-0.2-0.2-0.4-0.3-0.6c-0.1-0.3,0-0.6,0.3-0.5c0.4,0.1,0.8-0.1,1-0.4
		c0.5-0.4,0.5-0.4,1,0c0.2,0.1,0.3,0.3,0.4,0.5c0.1,0.2,0.1,0.4,0,0.6c-0.1,0.2-0.2,0.3-0.4,0.5c-0.2,0.2-0.3,0.4-0.2,0.7
		c0.1,0.3,0,0.6-0.6,0.5c0.1,0.3,0.3,0.5,0.4,0.7c0.4,0.3,0.6,0.8,0.7,1.3c0,0.3,0.2,0.6,0.3,0.9c0.2,0.5,0,1-0.5,1.3
		c-0.6,0.5-0.6,0.5-0.4,1.2c0.2,0.8,0.4,1.4,0.6,2.2c-0.3,0-0.5,0-0.7,0c-0.2,0-0.4,0.1-0.5,0.4c-0.2,0.4-0.2,0.9-0.1,1.4
		c0.1,0.6,0.2,1.1,0.2,1.7c0,0.1,0,0.2,0,0.3c0,0.2,0,0.4,0,0.7c-0.3,0.4-0.8,0.7-1.4,0.8c-0.1,0-0.1,0-0.2,0
		c0.1-0.1,0.2-0.2,0.3-0.4c0.4-0.3,0.5-0.8,0.5-1.3c0-1-0.2-2-0.6-2.9c-0.1-0.2-0.2-0.5-0.5-0.4c-0.3,0.1-0.5,0.5-0.4,0.8
		c0.1,0.3,0.3,0.6,0.3,0.9c0.1,0.5,0.2,1,0.3,1.5c0.1,0.3,0.1,0.5,0.2,0.8c0.1,0.2,0,0.5-0.2,0.6c0,0,0,0,0,0
		c-0.4,0.2-0.8,0.3-1.2,0.3c-0.8,0-1.6,0-2.5,0c-0.3,0.1-0.5-0.1-0.6-0.4C457.5,386.6,457.5,386.5,457.5,386.5z M461.7,380.3
		c0.1,0.4,0.2,0.7,0.2,0.9c0.2,0.6,0.3,1.2,0.5,1.8c0.1,0.3,0.3,0.4,0.5,0.2l-0.1-0.9l0.2,0.3h0.1l0.5-1.8c-0.5,0-0.6-0.3-0.5-0.6
		c0-0.1,0-0.2,0-0.2c-0.3-0.3-0.1-0.5,0-0.8c0-0.1,0-0.3-0.1-0.4c-0.2,0-0.3,0-0.5,0.1c-0.1,0.1-0.1,0.3-0.2,0.5
		c0,0.1,0,0.2-0.1,0.4l-0.1,0.1c-0.1-0.7-0.7-0.6-1-0.8c-0.4,0.8-0.7,1.6-1.1,2.5c-0.2,0.5-0.2,1,0.1,1.5c0.1,0.1,0.2,0.2,0.3,0.2
		c0.1,0,0.2-0.1,0.3-0.2c0.1-0.4,0.3-0.8,0.5-1.2C461.5,381.1,461.6,380.7,461.7,380.3L461.7,380.3z M461.3,378.7
		c0.2,0.1,0.4,0.1,0.6,0.1c0.2,0,0.4-0.1,0.6-0.2c-0.1-0.1-0.1-0.3-0.2-0.4c-0.1-0.1-0.1-0.2-0.2-0.2c-0.1,0-0.2-0.1-0.2,0
		C461.6,378.2,461.5,378.4,461.3,378.7L461.3,378.7z M460.9,383c-0.2,0.1-0.3,0.3-0.4,0.5c0.1,0.2,0.3,0.4,0.4,0.6
		c0.1-0.1,0.3-0.2,0.3-0.3C461.2,383.4,461.1,383.2,460.9,383L460.9,383z M463.3,384.1c0-0.4,0-0.6-0.4-0.6c-0.1,0-0.2,0.2-0.3,0.3
		c0,0.2,0,0.5,0.3,0.5C463.1,384.3,463.2,384.2,463.3,384.1L463.3,384.1z"/>
	<path class="st2" d="M438.6,420.1c1.6,1.1,2.2,2.8,3.4,4.3c-0.5,0-1,0-1.3,0c-0.1,0-0.3-0.1-0.3-0.3c-0.6-0.8-1.2-1.8-1.8-2.6
		c-0.4-0.7-1.2-1.2-2.1-1.2c-0.2,0-0.4,0.1-0.4,0.3c0,0,0,0.1,0,0.1c0,1.1,0,2.1,0,3.2c0,0.3-0.1,0.5-0.4,0.5c-1,0-0.8,0.1-0.8-0.9
		c0-2.6,0-5.2,0-7.8c0-0.4,0.1-0.6,0.5-0.5c1,0.1,1.9,0,2.9,0.1c1.3,0.1,2.3,1.3,2.2,2.6c0,0.2,0,0.3-0.1,0.4
		c-0.2,0.6-0.6,1.1-1.1,1.4L438.6,420.1z M436.1,417.8c0,0.4,0,0.8,0,1.2c0,0.1,0.1,0.2,0.3,0.3c0.5,0,1,0,1.4-0.1
		c0.7-0.1,1.1-0.7,1.1-1.3c0.1-0.7-0.3-1.4-1-1.5c0,0,0,0-0.1,0c-0.5-0.1-1-0.1-1.5-0.1c-0.1,0.1-0.2,0.2-0.3,0.3
		C436,416.9,436.1,417.4,436.1,417.8z"/>
	<path class="st2" d="M422.4,424.4l1.2-2.8c0.9-2,1.8-4,2.6-6c0.1-0.3,0.3-0.4,0.6-0.4c0.3,0,0.5,0.1,0.6,0.4
		c1.3,2.8,2.5,5.6,3.8,8.4c0,0.1,0.1,0.2,0.2,0.4c-0.4,0-0.8,0-1.2,0c-0.1-0.1-0.2-0.2-0.2-0.3c-0.3-0.7-0.6-1.4-0.9-2.1
		c-0.1-0.2-0.3-0.4-0.5-0.4c-1.1,0-2.2,0-3.3,0c-0.3,0-0.5,0.1-0.6,0.4c-0.3,0.7-0.6,1.3-0.8,2c0,0.2-0.3,0.4-0.5,0.4
		C423.1,424.4,422.8,424.4,422.4,424.4z M426.9,416.8h-0.1l-1.4,3.6h3.1L426.9,416.8z"/>
	<path class="st2" d="M415.1,419.8c0-1.4,0-2.7,0-4.1c-0.1-0.2,0.1-0.4,0.3-0.5c0.1,0,0.1,0,0.2,0c1,0,1.9,0,2.9,0
		c1.1,0,2.1,0.7,2.5,1.7c0.5,1.3-0.2,2.7-1.5,3.2c-0.2,0.1-0.3,0.1-0.5,0.1c-0.7,0.1-1.5,0.1-2.2,0.1c-0.2-0.1-0.4,0.1-0.5,0.3
		c0,0.1,0,0.1,0,0.2c0,1.1,0,2.1,0,3.2c0.1,0.2-0.1,0.4-0.2,0.4c-0.1,0-0.1,0-0.2,0c-0.8,0-0.8,0.1-0.8-0.8
		C415.1,422.3,415.1,421.1,415.1,419.8z M416.3,417.7c0,0.4,0,0.8,0,1.2c0,0.1,0.1,0.2,0.2,0.3c0.8,0,1.5,0,2.3-0.1
		c0.7-0.2,1.1-0.8,0.9-1.5c0-0.6-0.5-1.2-1.1-1.2c-0.7-0.1-1.4-0.1-2.1-0.1c-0.1,0.1-0.2,0.2-0.2,0.3
		C416.3,417,416.3,417.4,416.3,417.7z"/>
	<path class="st2" d="M439.2,377.2c0.1-0.4,0.2-0.7,0.3-1c0.5-1.6,1.4-3.1,2.4-4.5c0.1-0.1,0.2-0.2,0.3-0.4c0.3-0.4,0.7-0.5,1.1-0.4
		c0.5,0.1,0.9,0.2,1.4,0.2c0.2,0,0.4,0,0.3,0.3c-0.1,1.2,0.1,2.3,0.7,3.4C443.6,375.9,441.4,376.6,439.2,377.2z"/>
	<path class="st2" d="M456.7,417c-0.4-0.2-0.8-0.4-1.1-0.6c-0.6-0.3-1.4-0.3-2.1-0.1c-0.6,0.1-0.9,0.7-0.8,1.2
		c0.1,0.2,0.2,0.5,0.4,0.6c0.4,0.3,0.8,0.6,1.2,0.8c0.5,0.3,1,0.6,1.5,0.9c1,0.6,1.5,1.8,1.1,2.9c-0.4,1-1.4,1.7-2.5,1.7
		c-0.9,0.1-1.8-0.1-2.6-0.6c-0.2-0.1-0.4-0.3-0.4-0.6c0-0.3,0-0.7,0-1.1l0.4,0.3c0.7,0.6,1.7,0.9,2.6,0.8c0.6,0,1.1-0.4,1.2-0.9
		c0.2-0.5-0.1-1.1-0.5-1.4c-0.6-0.4-1.3-0.8-2-1.2c-0.4-0.2-0.8-0.5-1.1-0.8c-0.9-0.8-1-2.1-0.2-3c0.2-0.2,0.4-0.4,0.7-0.5
		c1.2-0.6,2.7-0.6,3.9,0.1c0.1,0.1,0.2,0.2,0.2,0.4C456.7,416.3,456.7,416.6,456.7,417z"/>
	<path class="st2" d="M446.9,374.4c0-1.1,0.1-2.2,0.2-3.3c0-0.2,0.2-0.4,0.4-0.6c0.7-0.5,0.6-1.2,0.6-1.8c0-0.1-0.1-0.2-0.2-0.3
		c-0.1-0.2-0.2-0.5-0.2-0.8c0-0.5,0-1,0.1-1.5c-0.1-0.3,0-0.7,0.2-1c0,0,0-0.1,0-0.1l0.3-1.2h0.1l-0.5-0.4l1.7-0.1
		c-0.2,0.2-0.4,0.4-0.6,0.7c-0.9,1.3-1.2,2.9-0.9,4.5c0,0.1,0,0.2,0,0.3c-0.1,0.4,0.1,0.7,0.5,0.8c0,0,0.1,0,0.1,0
		c0.4,0.1,0.7,0.3,0.9,0.6c0.6,0.6,1.1,1.2,1.6,1.8C449.9,373,448.5,373.8,446.9,374.4L446.9,374.4z"/>
	<path class="st2" d="M447,419.8c0,1.4,0,2.8,0,4.2c0.1,0.2,0,0.4-0.2,0.4c-0.1,0-0.1,0-0.2,0c-0.9,0-0.8,0.1-0.8-0.8
		c0-2.6,0-5.2,0-7.8c0-0.6,0-0.6,0.6-0.6c0.1,0,0.2,0,0.3,0c0.3,0,0.4,0.1,0.4,0.4C447,417,447,418.4,447,419.8z"/>
	<path class="st2" d="M463.9,391.1h2.2c0.6,0,1.3,0,1.9,0c0.3-0.1,0.6,0.1,0.8,0.4c0.2,0.3,0.5,0.6,0.7,0.9c-0.1,0-0.2,0-0.3,0
		c-1.2,0-2.5,0-3.7,0c-0.2,0-0.4-0.1-0.6-0.2C464.6,391.9,464.3,391.5,463.9,391.1z"/>
	<path class="st2" d="M412.7,386.9c0.2-0.3,0.5-0.5,0.8-0.4c2.7,0,5.5,0,8.2,0c0.3,0,0.7,0.1,0.8,0.4H412.7L412.7,386.9z"/>
	<path class="st2" d="M446.2,374.5c-0.5-0.8-0.7-1.8-0.5-2.7c0.1-0.4,0.1-0.7,0.6-0.7c0,0,0,0,0.1,0.1c0,1.1,0,2.1,0,3.1
		C446.3,374.3,446.3,374.4,446.2,374.5z"/>
	<path class="st2" d="M407.1,386.9c-0.5,0-1.1,0-1.6,0c-0.1,0-0.2-0.1-0.3-0.2c0.1-0.1,0.2-0.2,0.3-0.2c0.3,0,0.7,0,1.1,0
		c0.2,0.1,0.4,0.2,0.6,0.3L407.1,386.9z"/>
	<path class="st2" d="M463.5,386.9c0.4-0.4,0.9-0.6,1.5-0.4c0.1,0.1,0.1,0.2,0.1,0.3c0,0.1-0.1,0.1-0.2,0.1
		C464.4,386.9,464,386.9,463.5,386.9z"/>
	<path class="st2" d="M454.2,367.3v3.8h0.1L454.2,367.3L454.2,367.3z"/>
	<path class="st2" d="M453.9,367.1l-0.9,0.7l-0.1-0.1l0.9-0.7L453.9,367.1z"/>
</g>
</svg>
