<svg xmlns="http://www.w3.org/2000/svg" viewBox="0 0 872.97 794.45">
  <defs>
    <style>
      .a {
        fill: #ff9332;
      }

      .b {
        fill: #ffa362;
      }

      .c {
        fill: #fde3dc;
      }
    </style>
  </defs>
  <title>hermes FIDGET</title>
  <g>
    <path class="a" d="M908.51,781.86c-1.07-13,1.85-27.7,6.57-41.79,9.63-28.73,26.14-52.79,51-70.87,16.4-11.95,34.39-19.93,54-25,13.53-3.52,26.76-8.24,40-12.85,10.46-3.64,20.94-7.41,31-12.06,11.55-5.34,22.8-11.41,33.86-17.73a292.54,292.54,0,0,0,24.8-16c13-9.31,25.19-19.77,35.12-32.43,6.4-8.17,12.69-16.58,17.78-25.59,5.77-10.22,9.63-21.36,12.93-32.77,4.34-15,6.17-30.24,7.62-45.57a232.17,232.17,0,0,0-1.39-55c-2.35-16.37-4.52-32.78-7.63-49-2-10.32-5.85-20.26-8.25-30.52-4.55-19.44-8-39.08-3.72-59.06,2.27-10.57,4.21-21.39,8.19-31.35,4.34-10.87,10.26-21.24,16.57-31.15,9.76-15.32,23.06-27.46,38.3-37.19,7.77-5,16.31-8.78,24.68-12.75,18.25-8.65,37.75-10.9,57.66-10.62a130.79,130.79,0,0,1,43.37,7.53c26,9.51,47.85,24.87,65.2,46.68a142.56,142.56,0,0,1,23.14,41.65,133.87,133.87,0,0,1,6.22,65.4c-1.89,12.3-5.45,24.33-8.19,36.5-2.19,9.76-4.72,19.47-6.32,29.34-4.5,27.64-7.14,55.43-6,83.52a220.46,220.46,0,0,0,11.37,62.14c8.75,25.67,24.36,46.93,44.5,64.92a224.39,224.39,0,0,0,43,30.62c11.35,6.11,22.63,12.4,34.33,17.77,10,4.61,20.62,8.11,31,12,7.15,2.65,14.33,5.22,21.59,7.53,6.34,2,12.84,3.57,19.23,5.45,7.31,2.14,14.8,3.89,21.81,6.78a156.49,156.49,0,0,1,22.59,11.45A135.08,135.08,0,0,1,1747.91,691a151.52,151.52,0,0,1,18.29,28.24,137.64,137.64,0,0,1,11.72,33.26c4.37,20.37,4.65,40.86-.3,61.19-2,8.34-4.26,16.76-7.64,24.61-3.6,8.35-8.49,16.17-13.13,24-6.93,11.75-16.34,21.42-26.69,30.13a151.84,151.84,0,0,1-29.57,19.22c-26.53,13.41-54.58,16.7-83.54,13-13.74-1.76-26.91-6.28-39.66-12.12-22.62-10.36-39.63-27.67-57.59-44.09-15-13.75-31.24-26.27-47.34-38.81a252.89,252.89,0,0,0-26.34-17.48,223.1,223.1,0,0,0-24.05-12.27c-10.25-4.51-20.65-8.81-31.28-12.31a133.93,133.93,0,0,0-25.94-6.05c-17-2-34.14-2.53-51,2.09-9,2.46-18.16,4.22-26.86,7.36a283.82,283.82,0,0,0-27.71,12.25,195.2,195.2,0,0,0-19.57,11c-11.1,7.09-22.54,13.86-32.78,22.07-15.47,12.42-30.16,25.84-45,39.09-8.06,7.22-15.22,15.47-23.54,22.36a105.13,105.13,0,0,1-32.35,18.51c-6.66,2.33-13.25,4.93-20,6.84-13.52,3.81-27.42,4.16-41.37,3.81a121,121,0,0,1-38.82-7c-9.57-3.51-18.64-8.45-27.73-13.15-11.73-6.07-21.5-14.75-30.57-24.23a139.79,139.79,0,0,1-24.78-35.8A136.42,136.42,0,0,1,908.51,781.86Zm311.76-167.8c0.8,70.14,56.09,124.28,124.61,124.19,69.48-.1,123.65-55,123.77-124,0.13-69.82-55-124.06-124.52-124S1221.6,544.64,1220.28,614.06Zm519.64,168.72c-0.67-56.22-45.32-101.91-102.3-101.65-56.49.26-101.25,45-101.33,102.1-0.07,56.58,45.74,101.63,102.4,101.47C1694.11,884.55,1739.24,839.52,1739.92,782.78Zm-688.4,103c54.41,0.4,101.82-44.26,101.83-101.58,0-56.86-46.39-101.65-101.74-101.75a101.55,101.55,0,0,0-102,101.78C949.39,839.77,995.44,886,1051.51,885.77ZM1445.57,275.7c0.41-55.34-45.82-101.67-101.49-102-54.34-.3-102.08,44.77-101.89,101.94,0.19,56.88,45.58,100.8,101,101.45C1399.47,377.77,1445.42,331.88,1445.57,275.7Z" transform="translate(-908.29 -132.54)"/>
    <path class="a" d="M1448,614.32c-1.27,57.72-46.26,103.11-103.45,103.08a102.83,102.83,0,0,1-103.31-104.27c0.77-58.25,46.06-102.73,104-102.14C1403,511.57,1446.68,555.8,1448,614.32Z" transform="translate(-908.29 -132.54)"/>
    <path class="b" d="M1638.17,689.09c51.71-.69,94.17,42.16,94,94.13s-42.41,94-94.16,93.72c-52.59-.27-94.21-42.91-93.91-94.34C1544.37,730.94,1586.48,688.25,1638.17,689.09ZM1690.54,783c1.32-28.11-25-52.93-52.57-52.9s-52.91,24.83-52.66,53.15c0.25,27.91,24.45,52,52.48,52.38S1691.66,810.8,1690.54,783Z" transform="translate(-908.29 -132.54)"/>
    <path class="b" d="M1051.24,690.17c50.09-.73,94.19,41.14,94.23,93.56a94.1,94.1,0,0,1-93.84,94.41c-52,.06-94.15-42-94.2-93.69C957.39,731.91,998.91,690.18,1051.24,690.17ZM999,784c-1.2,26.94,23.35,52.57,52.24,52.55,29.66,0,53-25,52.93-52.1a52.86,52.86,0,0,0-52.92-53.13C1023,731.28,998.58,754.66,999,784Z" transform="translate(-908.29 -132.54)"/>
    <path class="b" d="M1343.54,181.48c52.27,0.2,94.33,41.32,94.36,93.66,0,53.1-41.38,94.1-94,94.32A94,94,0,0,1,1343.54,181.48ZM1396,275.72c1.37-28.36-23.82-52.73-52.29-52.66-29.08.07-52.9,24.42-52.43,52.51,0.51,30.33,22.65,52.1,52.46,52.63C1371.27,328.69,1396.85,305.55,1396,275.72Z" transform="translate(-908.29 -132.54)"/>
  </g>
  <g>
    <path class="c" d="M1365.9,583.95a15.21,15.21,0,0,0,4.4,3.58,3.73,3.73,0,0,1-1.83-.85c-0.57-.39-1.11-0.84-1.7-1.29-0.52,1.06.68,1.83,0.29,2.88l5.23-.89,0,0.17-1.71.34c-1.07.21-2.14,0.42-3.21,0.61a0.46,0.46,0,0,0-.46.55,2.17,2.17,0,0,1-.36,1.35,3.45,3.45,0,0,0-.31,2.39c0.22,1.15.61,2.26,0.88,3.4,0.15,0.64.2,1.31,0.31,2a5.91,5.91,0,0,0,.34,1.59,3,3,0,0,0,1,1.2,2.26,2.26,0,0,1,.89,1.27c-0.22,0-.4,0-0.58,0H1345a0.58,0.58,0,0,1-.71-0.54h4.34l0.09-.15c-0.16-.19-0.31-0.39-0.49-0.57-0.44-.45-0.43-0.66.09-1,0.31-.2.44-0.41,0.17-0.75a1.2,1.2,0,0,1-.25-0.5,3,3,0,0,0-1.53-2c-0.46-.29-0.88-0.65-1.31-1a0.49,0.49,0,0,1-.12-0.76,8.92,8.92,0,0,1,.82-0.83c0.47-.44.93-0.89,1.41-1.32,0.25-.22.57-0.38,0.82-0.61a9.59,9.59,0,0,0,.7-0.81l-0.12-.17a1.6,1.6,0,0,0-.47.15c-0.44.32-.86,0.67-1.28,1l-2,1.6a0.84,0.84,0,0,0-.12.09c-1.32,1.56-2.47,3.19-2.41,5.38a3.81,3.81,0,0,0,.72,2.25c0.18,0.25.29,0.5-.17,0.5h-9.23a0.72,0.72,0,0,1,.77-0.56c1.85,0,3.69,0,5.54,0,0.68,0,.7,0,0.61-0.69a0.71,0.71,0,0,1,0-.35,0.73,0.73,0,0,0-.18-1.06,0.53,0.53,0,0,1,0-.34c0.33-1.5.66-3,1-4.49a3.14,3.14,0,0,1,.26-0.58l0.18,0c-0.1.66-.16,1.32-0.3,2-0.2.93-.47,1.85-0.67,2.78a3.21,3.21,0,0,0,0,.77,3.88,3.88,0,0,1,0,.85c-0.15.78,0.23,1,.92,1.07a0.49,0.49,0,0,0,.32-0.32,1.71,1.71,0,0,0-.4-0.9,0.74,0.74,0,0,1-.27-0.85c0.2-1.07.43-2.14,0.64-3.21,0.1-.52.19-1,0.26-1.56a1.44,1.44,0,0,1,.61-1.21,3.53,3.53,0,0,0,.65-0.69l-0.07-.13c-0.34.07-.68,0.12-1,0.21a18.63,18.63,0,0,0-2.25.65,2.25,2.25,0,0,0-1.62,2.2,1,1,0,0,1-.51.78,1.1,1.1,0,0,1-1.37-.16,3.51,3.51,0,0,0-3.39-1.05c0.3,0.75.45,0.82,1.2,0.55l0.77-.25a0.74,0.74,0,0,1,.24.09l-1.39.56a15.73,15.73,0,0,1,.28,2.41,4,4,0,0,1-3.68,3.76,4.15,4.15,0,0,1-4.34-3,6.61,6.61,0,0,1-.12-1.37,0.36,0.36,0,0,0-.37-0.43c-0.48-.07-0.94-0.2-1.41-0.3l0-.2c0.5-.22,1-0.47,1.52-0.64a2.65,2.65,0,0,0,1.33-.88,3.9,3.9,0,0,1,2.45-1.34l0-.16c-1,.06-2.07.08-3.09,0.2a0.58,0.58,0,0,1-.71-0.37,8.2,8.2,0,0,0-.73-1.23,0.76,0.76,0,0,0-.59-0.27,20.66,20.66,0,0,1-9.86-1.19,4.62,4.62,0,0,0-3.48,0,1.64,1.64,0,0,0-1.18,1.66c0,0.4.16,0.57,0.62,0.45a4.62,4.62,0,0,1,4.84,1.4,2.25,2.25,0,0,0,.89.51,14.1,14.1,0,0,1,1.57.53c-0.37.1-.73,0.22-1.11,0.28s-0.45.2-.36,0.58a4.63,4.63,0,1,1-9.06.35c0-.17,0-0.34.07-0.56l-1.67-.37v-0.11l1.78-.54a1.26,1.26,0,0,0,.47-0.19q0.82-.73,1.6-1.5a0.45,0.45,0,0,0,.05-0.36,2.05,2.05,0,0,1,1.06-2.36,3.26,3.26,0,0,1,.65-0.31,1.68,1.68,0,0,0,1.24-1.69c0-.68,0-1.36,0-2a1,1,0,0,0-.68-1,8.92,8.92,0,0,1-1.92-1.23,2.49,2.49,0,0,1-.57-1.26,0.48,0.48,0,0,1,.61-0.61,12.35,12.35,0,0,1,1.35.37l0.16-.67a2,2,0,0,1,.66.51,2.19,2.19,0,0,0,2.18,1.19c1.17,0.1,2.36.1,3.52,0.24a21,21,0,0,1,3.35.62,4.92,4.92,0,0,1,2.77,2.38,38.48,38.48,0,0,0,2.48,3.64c2.44,3.12,7.12,2.07,8.73-1,0.69-1.32,1.31-2.67,2-4a10.25,10.25,0,0,1,2.9-3.61,0.57,0.57,0,0,1,.32-0.13,16.74,16.74,0,0,0-1.13,1.36c-0.63.93-1.23,1.89-1.79,2.86a1,1,0,0,0-.06.76,9.77,9.77,0,0,0,1,2,2.42,2.42,0,0,0,2.56.91A0.42,0.42,0,0,0,1342,590a9.76,9.76,0,0,1,.5-3.63,4.43,4.43,0,0,1,2.61-2.91,2.94,2.94,0,0,0,.56-0.35,6.36,6.36,0,0,1,6-.47,1.52,1.52,0,0,1-.14.2,16.4,16.4,0,0,0-4.11,7.34,0.68,0.68,0,0,1-.56.57c-0.69.17-1.37,0.38-2.09,0.59v-1.84l-0.92.4-0.08-.15c0.22-.14.43-0.28,0.66-0.4a0.57,0.57,0,0,0,.32-0.66,7.35,7.35,0,0,1,.23-3.39,13.47,13.47,0,0,0,.59-1.38,6.25,6.25,0,0,0-.92.74,4.47,4.47,0,0,0-.93,2.51c-0.08.69,0,1.4-.11,2.09a4.61,4.61,0,0,1-.3.93c0.68,0.15.41,0.76,0.65,1.28a12.45,12.45,0,0,1-1.48.24,0.75,0.75,0,0,1-.32-0.5c-0.05-.28-0.12-0.45-0.45-0.38a2.76,2.76,0,0,1-3.08-1.41,16.61,16.61,0,0,1-.84-1.66,3.56,3.56,0,0,0-.23.38l-1.13,2.58c-0.93,2.1-2.36,3.56-4.82,3.68,0.43,0.17.86,0.36,1.3,0.51a1,1,0,0,0,.49-0.05,60.56,60.56,0,0,1,7.09-1.75c5.48-.69,10.55-2.64,15.64-4.59l0.24-.09,0.09,0,2.19,2.92a7.11,7.11,0,0,1-4.64-.17,4.55,4.55,0,0,0-2.72-.53,4,4,0,0,0-.88.26,0.46,0.46,0,0,0-.22.37,1.58,1.58,0,0,1-.6,1.36,23.24,23.24,0,0,1-1.79,1.53,1.48,1.48,0,0,0-.26,2.35,15.09,15.09,0,0,0,1.32,1.43,1.31,1.31,0,0,1,.38,1.09,20.48,20.48,0,0,0,.15,2.55,0.36,0.36,0,0,0,.24.2,1.53,1.53,0,0,0,.41,0h15.55a0.82,0.82,0,0,0,.85-1,0.25,0.25,0,0,0-.1-0.17c-0.75-.26-0.47-0.94-0.55-1.43a3.44,3.44,0,0,0-.82-1.89,1.46,1.46,0,0,1-.26-0.48c-0.42-1.17-.85-2.34-1.25-3.52a0.72,0.72,0,0,0-.61-0.52,14.35,14.35,0,0,1-2-.6,5.19,5.19,0,0,1-3.19-3.75,0.55,0.55,0,0,1,.35-0.76c1.48-.74,3-1.47,4.4-2.31,0.75-.44,1.36-1.08,2.34-0.62a1.44,1.44,0,0,0,.81,0C1365.83,584.57,1366.17,584.47,1365.9,583.95Zm-54.8,17.77c0.43,0.08.86,0.2,1.3,0.24a0.5,0.5,0,0,0,.59-0.63c-0.11-.67-0.24-1.34-0.4-2a0.49,0.49,0,0,0-.31-0.27,0.4,0.4,0,0,0-.25.23c-0.25.69-.48,1.38-0.73,2.07a2.34,2.34,0,0,1-.22.38,2.28,2.28,0,0,1,.05-0.52c0.21-.61.45-1.21,0.65-1.82a1.47,1.47,0,0,0,0-.54,1.55,1.55,0,0,0-.48.15c-0.65.49-1.28,1-1.94,1.51A3.84,3.84,0,0,0,1311.1,601.72Zm12.11-14.86,0.1-.06a2.43,2.43,0,0,0-.29-0.39,5,5,0,0,0-2.85-1.28c-1.66-.17-3.33-0.22-5-0.32a5.83,5.83,0,0,1-2.7-.67,9.42,9.42,0,0,0-1.32-.67,1,1,0,0,0-.78,0c-0.33.22-.16,0.58,0,0.87a4,4,0,0,0,2.42,1.69,12.29,12.29,0,0,0,4.67.16,12.63,12.63,0,0,1,3.92.07A18,18,0,0,1,1323.21,586.86Zm44.4,14.9,0.51-.23-0.41-.42a1.43,1.43,0,0,1-.38-0.46c-0.12-.42-0.12-0.88-0.28-1.29-0.24-.62-0.62-1.19-0.85-1.81-0.52-1.42-1-2.87-1.46-4.31a1.25,1.25,0,0,0-.26-0.48,0.46,0.46,0,0,0-.4-0.07,0.38,0.38,0,0,0-.13.33,5.22,5.22,0,0,0,.17.64c0.52,2.09,1.68,4,2,6.13a0.75,0.75,0,0,0,.09.18c0.17,0.34.35,0.68,0.49,1A0.86,0.86,0,0,0,1367.61,601.76Zm-36.59,0h-0.15c0-.66-0.06-1.32-0.13-2a0.33,0.33,0,0,0-.64-0.17c-0.34.45-.65,0.92-1,1.38-0.18.26-.19,0.46,0.14,0.61a3.48,3.48,0,0,0,3.33-.18,0.38,0.38,0,0,0,.09-0.69c-0.35-.37-0.68-0.77-1-1.13a1.86,1.86,0,0,0-.53-0.26,1.75,1.75,0,0,0-.2.56C1330.93,600.55,1331,601.17,1331,601.79Zm-22.36-3.09-0.07-.09a0.86,0.86,0,0,1,.27-0.18c0.67-.12,1.34-0.21,2-0.34a1.23,1.23,0,0,0,.4-0.3,1.26,1.26,0,0,0-.36-0.35c-0.76-.27-1.54-0.51-2.33-0.76a3.83,3.83,0,0,0,.26,3.11c0.25,0.5.38,0.52,0.81,0.19s0.95-.73,1.4-1.12a1.87,1.87,0,0,0,.3-0.52,1.9,1.9,0,0,0-.57-0.07C1310.08,598.4,1309.37,598.56,1308.66,598.71Zm26.74-3.77c0.82,0.43,1.42,1.2,2.42.73,0.13-.06.32,0,0.45,0a0.94,0.94,0,0,0,.47-0.33c0.22-.42.39-0.88,0.59-1.37A13.35,13.35,0,0,0,1335.4,594.94Zm-22.16,7,1.36-.64a0.35,0.35,0,0,0,.12-0.61c-0.47-.56-0.95-1.11-1.44-1.65a0.37,0.37,0,0,0-.34-0.08,0.47,0.47,0,0,0-.17.36,7.32,7.32,0,0,0,.15.8C1313,600.69,1313.12,601.27,1313.24,601.94Zm0.43-13.22c-0.14.35-.29,0.73-0.43,1.11s-0.14.54-.21,0.8l0.89,0.17c0.06,0,.14,0,0.2,0a8.68,8.68,0,0,1,.86.16c0.37,0.1.73,0.23,1.09,0.34l0.06-.16Zm20.6,9.68h0c0-.2,0-0.41-0.06-0.61-0.05-.38-0.22-0.54-0.62-0.36s-1.08.4-1.61,0.62a0.45,0.45,0,0,0-.23.33,0.43,0.43,0,0,0,.23.33c0.6,0.2,1.2.37,1.81,0.52a0.34,0.34,0,0,0,.47-0.37C1334.27,598.71,1334.27,598.55,1334.27,598.4Zm-6.87,1.36c0.82-.36,1.49-0.64,2.15-0.95a0.47,0.47,0,0,0,.2-0.36,0.37,0.37,0,0,0-.22-0.28c-0.61-.13-1.23-0.23-1.85-0.33a0.35,0.35,0,0,0-.45.41C1327.27,598.72,1327.33,599.18,1327.4,599.76Zm32.3-8.68-0.06.21c0.7,0.33,1.4.69,2.12,1a3.55,3.55,0,0,0,2.25.2,0.47,0.47,0,0,0,.31-0.3,0.73,0.73,0,0,0-.81-0.64,5.77,5.77,0,0,1-3.21-.34A2.41,2.41,0,0,0,1359.69,591.08Zm-43.33,6.3-0.76.16c-0.59.1-1.17,0.19-1.76,0.3a0.93,0.93,0,0,0-.3.21,0.9,0.9,0,0,0,.25.27c0.65,0.25,1.31.48,2,.7a0.38,0.38,0,0,0,.58-0.35C1316.38,598.22,1316.36,597.78,1316.36,597.37Zm-0.12,2.09a5.67,5.67,0,0,0-.54-0.28c-0.66-.24-1.31-0.48-2-0.7a0.37,0.37,0,0,0-.34.1,0.4,0.4,0,0,0,.08.36c0.48,0.54,1,1.07,1.46,1.58a0.5,0.5,0,0,0,.39.13C1315.59,600.33,1315.83,600,1316.24,599.46Zm13.94-.32a1.54,1.54,0,0,0-.61-0.13,8,8,0,0,0-1,.44c-1.08.48-1.11,0.71-.21,1.52l0.08,0.07A0.33,0.33,0,0,0,1329,601l1-1.48C1330,599.43,1330.08,599.35,1330.18,599.14Zm3,2c0.32-.51.59-0.91,0.82-1.33a0.42,0.42,0,0,0-.18-0.37c-0.63-.2-1.27-0.36-1.92-0.52a0.35,0.35,0,0,0-.3.12,0.33,0.33,0,0,0,0,.31C1332.11,599.89,1332.6,600.44,1333.18,601.1Zm-19.46-3.42c0.8-.14,1.52-0.26,2.23-0.41a0.38,0.38,0,0,0,.31-0.54,0.39,0.39,0,0,0-.54-0.3,6,6,0,0,1-.66.07,1.91,1.91,0,0,0-1.51.58,0.44,0.44,0,0,0-.1.34A0.84,0.84,0,0,0,1313.72,597.68Zm16.15-.23-0.66-.84a0.74,0.74,0,0,0-1.21-.2,2.89,2.89,0,0,0-.53.89,2.55,2.55,0,0,0,.77.28A15.69,15.69,0,0,0,1329.87,597.45Zm2.62-2c-0.54.09-1.06,0.16-1.56,0.26a0.35,0.35,0,0,0-.17.28c0,0.39.05,0.77,0.08,1.16A1.87,1.87,0,0,0,1332.49,595.45Zm-21.62,1.15,0.07-.19c-0.23-.25-0.47-0.49-0.68-0.75a0.63,0.63,0,0,0-.85-0.22,2.27,2.27,0,0,0-.6.71,0.43,0.43,0,0,0,.21.31C1309.64,596.52,1310.26,596.56,1310.88,596.6Zm2.27-.13a1.94,1.94,0,0,0,2-1.14C1313.34,595,1313.49,595.07,1313.15,596.47Zm-2.95-1.12a14.12,14.12,0,0,0,1.16,1.16,0.45,0.45,0,0,0,.72-0.22c0-1-.27-1.24-1.24-1.07Zm18.83,0.77c0.37,0.44.64,0.81,1,1.13a0.51,0.51,0,0,0,.45.06,0.44,0.44,0,0,0,.22-0.34c0-.38-0.05-0.77-0.09-1.2ZM1311.71,594a0.82,0.82,0,0,1,.19.28c-0.09.64,0.26,0.75,0.78,0.69a1.57,1.57,0,0,1,.36,0,0.43,0.43,0,0,0,.54-0.45,0.44,0.44,0,0,0-.49-0.51C1312.65,593.93,1312.21,594,1311.71,594Zm22.23,3.2L1334,597a1,1,0,0,0-.47-0.25,14.41,14.41,0,0,0-1.8.56,1.06,1.06,0,0,0-.26.48,1.12,1.12,0,0,0,.49.1C1332.64,597.66,1333.29,597.4,1333.94,597.16Zm-20.62-2H1312c0.08,0.39.12,0.71,0.22,1a0.35,0.35,0,0,0,.68.08A11.65,11.65,0,0,0,1313.32,595.2Zm20.33,1.21a7.33,7.33,0,0,0-.64-0.65,0.35,0.35,0,0,0-.35,0c-0.25.32-.47,0.67-0.69,1l0.11,0.12Zm-17.69-.11,0.1-.17a1.92,1.92,0,0,0-.5-0.51,7.66,7.66,0,0,0-1.11.68l0.09,0.17Zm12.79-.69,0.06,0.2c0.52-.12,1-0.22,1.55-0.36a0.31,0.31,0,0,0,.17-0.24,0.4,0.4,0,0,0-.26-0.23A2.52,2.52,0,0,0,1328.76,595.61Zm-18.9,1.1,0,0.14c0.45,0.17.9,0.34,1.36,0.49a0.35,0.35,0,0,0,.3-0.08,0.43,0.43,0,0,0-.08-0.34,0.65,0.65,0,0,0-.38-0.2C1310.63,596.69,1310.24,596.71,1309.86,596.71Zm17,0-1.35.51C1326.58,597.77,1326.95,597.51,1326.9,596.69Zm-17.16-1.7h1.44C1310.68,594.19,1310.5,594.2,1309.74,595Zm3.89-.22,0.09,0.16,1.27,0.13,0.07-.21a7.13,7.13,0,0,0-1-.5A1.33,1.33,0,0,0,1313.63,594.76Zm4,1-1.17-.31C1316.69,596.25,1317,596.35,1317.67,595.77Zm-10.68.29c0.91,0.47,1.13.39,1.23-.4Zm23.8-1.17c0,0.55.22,0.6,1.19,0.21Z" transform="translate(-908.29 -132.54)"/>
    <path class="c" d="M1364,613.09c-0.1.29-.18,0.6-0.3,0.88-1.71,4.1-3.44,8.18-5.12,12.29-0.27.66-.72,0.45-1.16,0.51a0.64,0.64,0,0,1-.76-0.5q-2.67-6.46-5.37-12.91a3.34,3.34,0,0,0-.2-0.33c0,0.3,0,.46,0,0.62,0,4.21,0,8.42,0,12.62,0,0.51.16,0.66,0.64,0.63s0.92,0,1.38,0a0.37,0.37,0,0,1,.46.44c0,0.6,0,1.2,0,1.8a0.34,0.34,0,0,1-.43.41q-3.54,0-7.08,0a0.36,0.36,0,0,1-.44-0.45c0-.58,0-1.16,0-1.74a0.37,0.37,0,0,1,.45-0.45c0.56,0,1.13,0,1.69,0a0.44,0.44,0,0,0,.54-0.53q0-6.59,0-13.19a0.4,0.4,0,0,0-.51-0.48c-0.58,0-1.16,0-1.74,0a0.34,0.34,0,0,1-.42-0.41q0-.95,0-1.9A0.35,0.35,0,0,1,1346,610c2.12,0,4.24,0,6.36,0a0.66,0.66,0,0,1,.48.33q2.31,5.64,4.59,11.29a2.91,2.91,0,0,0,.15.28l4.38-10.6c0.55-1.32.55-1.32,2-1.32,1.68,0,3.35,0,5,0a0.45,0.45,0,0,1,.55.56c0,0.58,0,1.16,0,1.74a0.36,0.36,0,0,1-.45.44c-0.6,0-1.2,0-1.8,0a0.33,0.33,0,0,0-.4.39c0,0.1,0,.21,0,0.31q0,6.39,0,12.78c0,0.72,0,.72.71,0.73,0.5,0,1,0,1.49,0a0.37,0.37,0,0,1,.46.44c0,0.6,0,1.2,0,1.8a0.34,0.34,0,0,1-.43.41q-3.49,0-7,0a0.36,0.36,0,0,1-.44-0.45c0-.56,0-1.13,0-1.69a0.41,0.41,0,0,1,.5-0.51c0.44,0,.89,0,1.33,0,0.2,0,.4,0,0.61-0.06V613.12Z" transform="translate(-908.29 -132.54)"/>
    <path class="c" d="M1281.78,612.71c-0.66,0-1.3,0-1.95,0a0.38,0.38,0,0,1-.48-0.46c0-.61,0-1.23,0-1.85a0.35,0.35,0,0,1,.42-0.42h6.87c0.29,0,.45.07,0.44,0.4,0,0.65,0,1.3,0,1.95a0.32,0.32,0,0,1-.4.38c-0.53,0-1.06,0-1.59,0a0.37,0.37,0,0,0-.46.43c0,1.35,0,2.7,0,4.05a0.36,0.36,0,0,0,.43.42c2.72,0,5.44,0,8.16,0a0.52,0.52,0,0,0,.39-0.3c0-1.5,0-3,0-4.59-0.69,0-1.33,0-2,0a0.4,0.4,0,0,1-.5-0.49c0-.61,0-1.23,0-1.85a0.33,0.33,0,0,1,.39-0.4c2.36,0,4.72,0,7.08,0a0.51,0.51,0,0,1,.35.35,18.88,18.88,0,0,1,0,2,0.5,0.5,0,0,1-.35.34,12.33,12.33,0,0,1-1.69,0c-0.48,0-.52.21-0.51,0.59q0,5.9,0,11.8c0,0.44,0,.89,0,1.33a0.4,0.4,0,0,0,.48.49c0.55,0,1.09,0,1.64,0a0.37,0.37,0,0,1,.46.44c0,0.6,0,1.2,0,1.8,0,0.32-.13.41-0.43,0.4q-3.49,0-7,0a0.36,0.36,0,0,1-.44-0.45c0-.6,0-1.2,0-1.8a0.34,0.34,0,0,1,.39-0.4h1.64a0.37,0.37,0,0,0,.45-0.45q0-2.87,0-5.75a0.38,0.38,0,0,0-.44-0.46h-8.11a0.39,0.39,0,0,0-.46.46q0,2.87,0,5.75a0.39,0.39,0,0,0,.46.46c0.51,0,1,0,1.54,0a0.37,0.37,0,0,1,.46.44c0,0.6,0,1.2,0,1.8a0.34,0.34,0,0,1-.43.41h-6.87c-0.29,0-.44-0.07-0.43-0.4,0-.62,0-1.23,0-1.85a0.33,0.33,0,0,1,.4-0.4h1.64a0.36,0.36,0,0,0,.44-0.4q0-6.8,0-13.59A1.49,1.49,0,0,0,1281.78,612.71Z" transform="translate(-908.29 -132.54)"/>
    <path class="c" d="M1337.24,619.4a3.32,3.32,0,0,1,2,1.85,4.66,4.66,0,0,1,.41,1.61c0.09,1.19.09,2.39,0.1,3.59a0.38,0.38,0,0,0,.44.46c0.53,0,1.06,0,1.59,0a0.37,0.37,0,0,1,.46.45q0,0.87,0,1.74a0.36,0.36,0,0,1-.44.45q-2.15,0-4.31,0a0.38,0.38,0,0,1-.47-0.43q-0.08-2.87-.19-5.74a4.74,4.74,0,0,0-.17-1.21,2.48,2.48,0,0,0-2.53-1.64c-1.67,0-3.35,0-5,0a0.36,0.36,0,0,0-.44.41q0,2.77,0,5.54a0.36,0.36,0,0,0,.43.43c0.53,0,1.06,0,1.59,0a0.4,0.4,0,0,1,.48.49c0,0.58,0,1.16,0,1.74a0.35,0.35,0,0,1-.42.42q-3.41,0-6.82,0a0.37,0.37,0,0,1-.45-0.45c0-.58,0-1.16,0-1.74a0.39,0.39,0,0,1,.46-0.45h1.59a0.39,0.39,0,0,0,.45-0.46q0-6.64,0-13.28a0.39,0.39,0,0,0-.49-0.45c-0.53,0-1.06,0-1.59,0a0.35,0.35,0,0,1-.42-0.42c0-.62,0-1.23,0-1.85a0.38,0.38,0,0,1,.45-0.46c3.88,0,7.76,0,11.64.06a4.78,4.78,0,0,1,4.65,3.91,5,5,0,0,1-.4,3.4A3.39,3.39,0,0,1,1337.24,619.4Zm-5-6.68h0c-1,0-2,0-3,0-0.51,0-.63.16-0.62,0.64q0,2,0,4a0.52,0.52,0,0,0,.63.65c1.72,0,3.45,0,5.17,0a4.93,4.93,0,0,0,1.55-.26,2.55,2.55,0,0,0,1.66-3,2.38,2.38,0,0,0-2.55-2h-2.87Z" transform="translate(-908.29 -132.54)"/>
    <path class="c" d="M1316.21,612.71h-1c-2.15,0-4.31,0-6.46,0-0.4,0-.54.1-0.53,0.52q0,1.9,0,3.8c0,0.42.15,0.51,0.54,0.51,1.88,0,3.76,0,5.64,0,0.41,0,.55.12,0.53,0.52,0,0.56,0,1.13,0,1.69,0,0.39-.14.49-0.51,0.49-1.86,0-3.73,0-5.59,0-0.46,0-.62.11-0.61,0.6q0,2.77,0,5.54a0.48,0.48,0,0,0,.59.58q3.39,0,6.77,0a0.49,0.49,0,0,0,.59-0.6c0-.87,0-1.74,0-2.62a0.47,0.47,0,0,1,.6-0.58c0.55,0,1.09,0,1.64,0a0.41,0.41,0,0,1,.51.49c0,1.83,0,3.66,0,5.49a0.36,0.36,0,0,1-.43.45h-15.29a0.34,0.34,0,0,1-.42-0.41c0-.6,0-1.2,0-1.8a0.37,0.37,0,0,1,.46-0.44c0.58,0,1.16,0,1.74,0a0.4,0.4,0,0,0,.47-0.49q0-6.62,0-13.23a0.4,0.4,0,0,0-.51-0.48c-0.58,0-1.16,0-1.74,0a0.34,0.34,0,0,1-.42-0.41c0-.6,0-1.2,0-1.79a0.43,0.43,0,0,1,.53-0.53c1.56,0,3.11,0,4.67,0,3.44,0,6.87,0,10.31,0,0.48,0,.66.11,0.65,0.62,0,1.38,0,2.77,0,4.15,0,0.41-.1.59-0.54,0.57s-1.16,0-1.74,0a0.35,0.35,0,0,1-.42-0.42C1316.22,614.2,1316.21,613.5,1316.21,612.71Z" transform="translate(-908.29 -132.54)"/>
    <path class="c" d="M1378.86,612.77v4.72l0.58,0c1.83,0,3.66,0,5.49,0,0.49,0,.62.16,0.59,0.61a10.67,10.67,0,0,0,0,1.49c0,0.46-.1.62-0.59,0.61-1.8,0-3.59,0-5.39,0h-0.66v6.66h7.83c0-1.09,0-2.13,0-3.17a0.46,0.46,0,0,1,.59-0.57c0.58,0,1.16,0,1.74,0a0.34,0.34,0,0,1,.4.4c0,1.88,0,3.76,0,5.64,0,0.39-.23.38-0.51,0.38h-7.08c-2.63,0-5.27,0-7.9,0-0.44,0-.62-0.1-0.58-0.57a10.6,10.6,0,0,0,0-1.54c0-.45.16-0.56,0.57-0.55s1.06,0,1.59,0a0.43,0.43,0,0,0,.52-0.51q0-6.59,0-13.18a0.43,0.43,0,0,0-.54-0.51c-0.55,0-1.1,0-1.64,0s-0.5-.13-0.49-0.51a15.65,15.65,0,0,0,0-1.69c0-.45.16-0.55,0.57-0.54,0.92,0,1.85,0,2.77,0,4,0,8,0,12.06,0,0.52,0,.67.14,0.66,0.66,0,1.38,0,2.77,0,4.16a0.43,0.43,0,0,1-.53.53c-0.55,0-1.09,0-1.64,0a0.37,0.37,0,0,1-.44-0.46c0-.58,0-1.16,0-1.74a0.33,0.33,0,0,0-.37-0.41H1379A0.91,0.91,0,0,0,1378.86,612.77Z" transform="translate(-908.29 -132.54)"/>
    <path class="c" d="M1406.39,611.51c0-.42,0-0.77,0-1.13a0.34,0.34,0,0,1,.4-0.4h1.74a0.34,0.34,0,0,1,.4.4q0,2.41,0,4.82a0.33,0.33,0,0,1-.39.39c-0.63,0-1.27,0-1.9,0a0.53,0.53,0,0,1-.39-0.29,4.52,4.52,0,0,0-4-3.17,4.59,4.59,0,0,0-3.18.48,2.37,2.37,0,0,0,0,4.34,5.15,5.15,0,0,0,1.48.55c1.48,0.31,3,.51,4.47.84a6.36,6.36,0,0,1,3.84,2.19,5.85,5.85,0,0,1-2.56,8.95,8.81,8.81,0,0,1-8.25-.63,5.5,5.5,0,0,1-.54-0.38c-0.16-.12-0.3-0.26-0.57-0.49,0,0.48,0,.82,0,1.17a0.33,0.33,0,0,1-.37.41c-0.6,0-1.2,0-1.79,0a0.51,0.51,0,0,1-.35-0.34q0-3.05,0-6.11a0.47,0.47,0,0,1,.32-0.32,15.89,15.89,0,0,1,1.85,0,0.6,0.6,0,0,1,.37.36c0.18,0.46.27,1,.45,1.41a4.66,4.66,0,0,0,4,2.92,7.69,7.69,0,0,0,3.35-.22,3.23,3.23,0,0,0,2.42-2.34,3,3,0,0,0-2-3.62c-1.1-.39-2.28-0.57-3.41-0.86a39,39,0,0,1-3.84-1,4.31,4.31,0,0,1-3-3.63,4.81,4.81,0,0,1,2-4.82,7.86,7.86,0,0,1,8.51-.24A11.18,11.18,0,0,1,1406.39,611.51Z" transform="translate(-908.29 -132.54)"/>
    <path class="c" d="M1343.11,604.1H1307.4c-0.45,0-.69-0.06-0.67-0.6s0.15-.67.62-0.6h0.1a14.83,14.83,0,0,1,4.21.33,4.47,4.47,0,0,0,2.47-.19,3.48,3.48,0,0,1,.9-0.14c4.43,0,8.86,0,13.29,0,0.72,0,1.44.27,2.16,0.32a10.06,10.06,0,0,0,1.72-.15,11.38,11.38,0,0,1,1.25-.18h45.41c0.38,0,.74-0.07.72,0.55a0.54,0.54,0,0,1-.67.65Q1361,604.09,1343.11,604.1Z" transform="translate(-908.29 -132.54)"/>
    <path class="c" d="M1361.85,573.08l-0.53-.39,0.1-.14c0.68,0.29,1.5.12,2.09,0.76a1.68,1.68,0,0,0,.82.34,0.49,0.49,0,0,0,.36-0.2,0.32,0.32,0,0,0,0-.32,0.43,0.43,0,0,0-.36-0.1c-0.54.44-.7-0.18-1-0.3a1.65,1.65,0,0,1,2.3.08,2.83,2.83,0,0,0,1.79,1.16,6.08,6.08,0,0,1,1.14.44,1,1,0,0,1,.29.57,1.49,1.49,0,0,1-.41.22c-0.15.06-.31,0.1-0.46,0.15a4,4,0,0,0-.51-0.32,0.67,0.67,0,0,0-.32,0,0.63,0.63,0,0,0,.08.32c0.31,0.16.64,0.28,1,.44l-0.62.26,0.68,0.73c-1-.24-1.23.71-2,1a1.29,1.29,0,0,1,.16-0.31,8,8,0,0,1,.72-0.66,0.57,0.57,0,0,0,.08-0.89,0.84,0.84,0,0,0-.64-0.2c-0.76.06-.86,0.22-0.68,1a3,3,0,0,1,.11.76c-0.09-.34-0.15-0.69-0.27-1a0.49,0.49,0,0,0-.33-0.29,6.06,6.06,0,0,0-1.17.09,0.42,0.42,0,0,0-.27.31,9.34,9.34,0,0,0,.32,1.69c0.13,0.39.19,0.67-.24,0.86a3.58,3.58,0,0,0-.35.21l0.12,0.2,0.89-.27a5.25,5.25,0,0,1,.55,4.23,11.37,11.37,0,0,1-1.57-.76c-0.79-.54-1.5-1.19-2.28-1.73a8.8,8.8,0,0,0-1.48-.75,1.65,1.65,0,0,1-.47-1.34,6.44,6.44,0,0,0,.07-0.67,1.2,1.2,0,0,1,.17-0.61,1.4,1.4,0,0,0,.2-0.82c0.25-.75.25-1.64,1-2.19a0.92,0.92,0,0,0,.23-0.25C1361.34,574,1361.57,573.56,1361.85,573.08Z" transform="translate(-908.29 -132.54)"/>
    <path class="c" d="M1370.31,601.7h3.11a1.63,1.63,0,0,0,.64-0.11,0.89,0.89,0,0,0,.59-1.23,16.62,16.62,0,0,0-.93-2.54,3,3,0,0,1,0-3.19c0.23-.37.35-0.82,0.56-1.21a3.79,3.79,0,0,0,.4-2,5.63,5.63,0,0,1,.61-2.67,3.47,3.47,0,0,1,1.16-1.69,1.77,1.77,0,0,0,.31-0.58c0.16,0.79-.93.92-0.69,1.61a11.36,11.36,0,0,0,1.28-.82,2.26,2.26,0,0,0,.49-0.79,4.41,4.41,0,0,0-.3-1.47,1.35,1.35,0,0,0-.39-0.54c-0.54-.25-0.71.15-0.81,0.67-0.14-.28-0.25-0.48-0.33-0.68-0.17-.41,0-0.67.39-0.55a1.21,1.21,0,0,0,1.26-.53c0.55-.52.66-0.53,1.23,0a1.68,1.68,0,0,1,.49.58,1,1,0,0,1,0,.67,2.71,2.71,0,0,1-.49.59,0.82,0.82,0,0,0-.26.86c0.12,0.4,0,.72-0.68.62a4.56,4.56,0,0,0,.54.86,2.69,2.69,0,0,1,.82,1.6c0.06,0.38.21,0.75,0.31,1.13a1.32,1.32,0,0,1-.58,1.56c-0.77.55-.77,0.55-0.54,1.47s0.44,1.74.68,2.7c-0.34,0-.62.05-0.9,0.06a0.6,0.6,0,0,0-.6.44,2.5,2.5,0,0,0-.15,1.67,10.91,10.91,0,0,1,.19,2.08,3.39,3.39,0,0,1,0,.36,1.51,1.51,0,0,1-.05.8,2.54,2.54,0,0,1-1.67,1,1.58,1.58,0,0,1-.25-0.06,2.47,2.47,0,0,1,.32-0.43,1.87,1.87,0,0,0,.61-1.56,7.33,7.33,0,0,0-.75-3.57c-0.13-.23-0.21-0.6-0.62-0.44a0.88,0.88,0,0,0-.5,1c0.13,0.37.31,0.73,0.41,1.1,0.16,0.59.26,1.19,0.39,1.79q0.11,0.5.25,1a0.53,0.53,0,0,1-.3.71,3,3,0,0,1-1.51.39c-1,0-2,0-3,0A0.61,0.61,0,0,1,1370.31,601.7Zm5.17-7.53c0.12,0.47.19,0.81,0.29,1.14,0.21,0.74.41,1.48,0.65,2.2,0.1,0.31.32,0.5,0.66,0.25l-0.16-1.12,0.28,0.41h0.16l0.55-2.24c-0.66,0-.7-0.34-0.64-0.77a0.42,0.42,0,0,0,0-.3c-0.38-.35-0.13-0.65,0-1a0.55,0.55,0,0,0-.11-0.5,0.71,0.71,0,0,0-.58.11,1.2,1.2,0,0,0-.19.56c0,0.15-.06.3-0.09,0.45l-0.13.07c-0.1-.8-0.81-0.71-1.26-1-0.44,1-.85,2-1.31,3a1.81,1.81,0,0,0,.12,1.8,0.46,0.46,0,0,0,.33.23,0.55,0.55,0,0,0,.37-0.29,7.21,7.21,0,0,1,.58-1.5A6.91,6.91,0,0,0,1375.48,594.17Zm-0.52-1.92a2.78,2.78,0,0,0,.76.16,3.72,3.72,0,0,0,.76-0.26,4.59,4.59,0,0,0-.25-0.49,1,1,0,0,0-.29-0.28,0.4,0.4,0,0,0-.3-0.06C1375.4,591.59,1375.19,591.9,1375,592.24Zm-0.45,5.15a2,2,0,0,0-.46.58,4.06,4.06,0,0,0,.51.74,1.17,1.17,0,0,0,.41-0.4A4.3,4.3,0,0,0,1374.51,597.4Zm2.87,1.45c0-.45,0-0.77-0.44-0.72a0.51,0.51,0,0,0-.33.36c0,0.28,0,.63.4,0.63A0.81,0.81,0,0,0,1377.37,598.85Z" transform="translate(-908.29 -132.54)"/>
    <path class="c" d="M1347.4,642.55c1.9,1.34,2.7,3.44,4.11,5.27-0.66,0-1.16,0-1.64,0a0.73,0.73,0,0,1-.41-0.33c-0.73-1-1.43-2.13-2.19-3.16a2.86,2.86,0,0,0-2.56-1.43,0.4,0.4,0,0,0-.47.48c0,1.3,0,2.6,0,3.9,0,0.4-.08.58-0.53,0.57-1.24,0-1,.17-1-1.07,0-3.15,0-6.29,0-9.44,0-.49.12-0.67,0.62-0.64,1.16,0.07,2.33,0,3.47.14a2.89,2.89,0,0,1,2.52,3.68,2.72,2.72,0,0,1-1.35,1.73Zm-3.15-2.79c0,0.5,0,1,0,1.48a0.51,0.51,0,0,0,.34.35,9.27,9.27,0,0,0,1.73-.11,1.59,1.59,0,0,0,1.37-1.6,1.56,1.56,0,0,0-1.3-1.85,9.15,9.15,0,0,0-1.83-.13,0.52,0.52,0,0,0-.32.38C1344.23,638.77,1344.25,639.27,1344.25,639.76Z" transform="translate(-908.29 -132.54)"/>
    <path class="c" d="M1327.69,647.82l1.51-3.43c1.07-2.44,2.15-4.87,3.21-7.31a0.68,0.68,0,0,1,.72-0.49,0.72,0.72,0,0,1,.77.49c1.53,3.41,3.08,6.81,4.62,10.22,0.06,0.14.11,0.28,0.2,0.51-0.53,0-1,0-1.46,0a0.62,0.62,0,0,1-.3-0.36c-0.37-.84-0.74-1.69-1.08-2.54a0.61,0.61,0,0,0-.66-0.43q-2,0-4.05,0a0.63,0.63,0,0,0-.68.48c-0.31.83-.68,1.64-1,2.47a0.55,0.55,0,0,1-.64.43C1328.51,647.79,1328.15,647.82,1327.69,647.82Zm5.47-9.18-0.17,0-1.69,4.38h3.77Z" transform="translate(-908.29 -132.54)"/>
    <path class="c" d="M1318.74,642.24c0-1.66,0-3.31,0-5a0.47,0.47,0,0,1,.58-0.58c1.18,0,2.36,0,3.54,0a3.09,3.09,0,0,1,3,2.1,3,3,0,0,1-2.44,4,17.22,17.22,0,0,1-2.65.12,0.45,0.45,0,0,0-.55.56c0,1.28,0,2.56,0,3.84a0.44,0.44,0,0,1-.56.54c-1,0-.94.14-0.95-1C1318.73,645.31,1318.74,643.78,1318.74,642.24Zm1.5-2.49c0,0.5,0,1,0,1.48a0.48,0.48,0,0,0,.24.36,16.78,16.78,0,0,0,2.79-.18,1.58,1.58,0,0,0,1.14-1.83,1.5,1.5,0,0,0-1.35-1.5,19.4,19.4,0,0,0-2.55-.09,0.5,0.5,0,0,0-.27.38C1320.22,638.82,1320.24,639.29,1320.24,639.75Z" transform="translate(-908.29 -132.54)"/>
    <path class="c" d="M1348.08,590.44c0.14-.49.23-0.86,0.35-1.23a17.34,17.34,0,0,1,2.94-5.42c0.13-.16.28-0.3,0.41-0.46a1.18,1.18,0,0,1,1.35-.43,10.67,10.67,0,0,0,1.72.24c0.22,0,.46,0,0.42.37a7.38,7.38,0,0,0,.81,4.12A58.77,58.77,0,0,1,1348.08,590.44Z" transform="translate(-908.29 -132.54)"/>
    <path class="c" d="M1369.39,638.83c-0.52-.26-0.94-0.52-1.39-0.71a3.43,3.43,0,0,0-2.5-.12,1.25,1.25,0,0,0-.48,2.22,9,9,0,0,0,1.44,1c0.61,0.38,1.26.68,1.85,1.1a3.07,3.07,0,0,1,1.38,3.51,3.16,3.16,0,0,1-3,2.1,5.91,5.91,0,0,1-3.16-.69,0.68,0.68,0,0,1-.43-0.73c0-.41,0-0.82,0-1.35l0.51,0.42a4,4,0,0,0,3.17,1,1.65,1.65,0,0,0,1.52-1.12,1.44,1.44,0,0,0-.65-1.65c-0.77-.54-1.6-1-2.39-1.49a9.91,9.91,0,0,1-1.37-1,2.56,2.56,0,0,1,.52-4.23,4.87,4.87,0,0,1,4.71.08,0.62,0.62,0,0,1,.26.44C1369.42,638,1369.39,638.38,1369.39,638.83Z" transform="translate(-908.29 -132.54)"/>
    <path class="c" d="M1357.4,587c0.06-1.36.1-2.72,0.2-4.07a1.1,1.1,0,0,1,.46-0.69c0.83-.57.75-1.42,0.73-2.25a0.72,0.72,0,0,0-.22-0.33,1.4,1.4,0,0,1-.23-0.92,11.31,11.31,0,0,1,.1-1.82,1.43,1.43,0,0,1,.29-1.19,0.26,0.26,0,0,0,.06-0.14l0.34-1.47,0.14,0-0.57-.51,2.05-.13a7.52,7.52,0,0,0-.73.84,7.81,7.81,0,0,0-1.15,5.44c0,0.14,0,.27,0,0.41a0.8,0.8,0,0,0,.74,1,2.44,2.44,0,0,1,1.14.74c0.7,0.67,1.35,1.4,2,2.13a25.29,25.29,0,0,1-5.25,3.08Z" transform="translate(-908.29 -132.54)"/>
    <path class="c" d="M1357.59,642.25c0,1.69,0,3.39,0,5.08a0.4,0.4,0,0,1-.5.5c-1.14,0-1,.13-1-1q0-4.75,0-9.49c0-.67,0-0.67.68-0.67a3.09,3.09,0,0,0,.36,0c0.37,0,.46.13,0.46,0.48C1357.59,638.86,1357.59,640.56,1357.59,642.25Z" transform="translate(-908.29 -132.54)"/>
    <path class="c" d="M1378.19,607.34h2.67c0.78,0,1.57,0,2.35,0a1,1,0,0,1,1,.45c0.26,0.36.56,0.69,0.89,1.09-0.18,0-.3,0-0.42,0-1.52,0-3,0-4.56,0a1.17,1.17,0,0,1-.7-0.29C1379,608.26,1378.65,607.84,1378.19,607.34Z" transform="translate(-908.29 -132.54)"/>
    <path class="c" d="M1315.77,602.21a1,1,0,0,1,1-.52q5,0,9.94,0a1,1,0,0,1,1,.52h-11.86Z" transform="translate(-908.29 -132.54)"/>
    <path class="c" d="M1356.64,587.07a4.93,4.93,0,0,1-.66-3.29c0.08-.45.09-0.86,0.7-0.83a0.19,0.19,0,0,1,.07.07q0,1.92-.06,3.83A1,1,0,0,1,1356.64,587.07Z" transform="translate(-908.29 -132.54)"/>
    <path class="c" d="M1309,602.25c-0.65,0-1.29,0-1.94,0a0.86,0.86,0,0,1-.33-0.26,0.9,0.9,0,0,1,.34-0.26,5.79,5.79,0,0,1,1.28,0,2.53,2.53,0,0,1,.72.37Z" transform="translate(-908.29 -132.54)"/>
    <path class="c" d="M1377.69,602.25a1.73,1.73,0,0,1,1.77-.5,0.36,0.36,0,0,1,.08.31,0.33,0.33,0,0,1-.25.18C1378.78,602.26,1378.28,602.25,1377.69,602.25Z" transform="translate(-908.29 -132.54)"/>
    <path class="c" d="M1366.34,578.32V583h0.11l-0.21-4.65Z" transform="translate(-908.29 -132.54)"/>
    <path class="c" d="M1366,578.15l-1.14.85-0.09-.12,1.13-.87Z" transform="translate(-908.29 -132.54)"/>
  </g>
</svg>
